<?xml version="1.0" standalone="no"?>
<!DOCTYPE svg PUBLIC "-//W3C//DTD SVG 1.1//EN" "http://www.w3.org/Graphics/SVG/1.1/DTD/svg11.dtd"><svg height="369"
  node-id="1" sillyvg="true" template-height="369" template-width="850" version="1.1" viewBox="0 0 850 369" width="850"
  xmlns="http://www.w3.org/2000/svg" xmlns:xlink="http://www.w3.org/1999/xlink">
  <defs node-id="11">
    <linearGradient gradientUnits="userSpaceOnUse" id="SVGID_1_" node-id="6" spreadMethod="pad" x1="403.2344"
      x2="403.2344" y1="315.1582" y2="95.6006">
      <stop offset="0" stop-color="#777777"></stop>
      <stop offset="1" stop-color="#cccccc"></stop>
    </linearGradient>
  </defs>
  <g node-id="31">
    <path
      d="M 826.48 342.75 C 826.73 343.24 826.77 343.75 826.60 344.27 C 826.43 344.80 826.09 345.18 825.60 345.42 C 825.11 345.68 824.60 345.72 824.08 345.55 C 820.94 344.52 817.83 343.48 814.73 342.45 L 814.78 342.47 C 813.99 342.23 813.24 341.99 812.53 341.75 C 812.00 341.57 811.62 341.24 811.38 340.75 C 811.12 340.25 811.08 339.75 811.25 339.22 C 811.42 338.70 811.76 338.32 812.25 338.07 C 812.75 337.82 813.25 337.78 813.78 337.95 C 814.46 338.17 815.18 338.40 815.92 338.62 L 815.98 338.65 C 819.08 339.68 822.19 340.71 825.33 341.75 C 825.85 341.92 826.23 342.26 826.48 342.75 Z M 767.73 327.95 C 767.45 327.47 767.38 326.96 767.53 326.43 C 767.67 325.90 767.97 325.50 768.45 325.23 C 768.92 324.95 769.42 324.88 769.95 325.03 C 781.95 328.20 793.70 331.61 805.20 335.25 C 805.73 335.42 806.12 335.74 806.38 336.23 C 806.63 336.72 806.67 337.23 806.50 337.75 C 806.34 338.28 806.01 338.67 805.53 338.93 C 805.03 339.18 804.52 339.22 804.00 339.05 C 792.57 335.43 780.88 332.03 768.95 328.88 C 768.41 328.73 768.01 328.43 767.73 327.95 Z M 765.17 277.07 C 764.88 277.55 764.47 277.86 763.92 278.00 L 760.38 278.95 C 759.85 279.08 759.35 279.01 758.88 278.72 C 758.40 278.44 758.09 278.03 757.95 277.50 C 757.82 276.96 757.89 276.45 758.17 275.97 C 758.47 275.50 758.88 275.19 759.42 275.05 L 762.98 274.10 C 763.50 273.96 764.00 274.04 764.48 274.32 C 764.95 274.61 765.26 275.02 765.40 275.55 C 765.53 276.09 765.46 276.60 765.17 277.07 Z M 754.60 282.45 C 754.65 281.90 754.90 281.45 755.33 281.10 C 755.76 280.75 756.25 280.60 756.80 280.65 C 757.35 280.70 757.80 280.95 758.15 281.38 L 761.45 285.32 C 761.80 285.76 761.95 286.25 761.90 286.80 C 761.85 287.35 761.61 287.80 761.18 288.15 C 760.75 288.50 760.25 288.65 759.70 288.60 C 759.15 288.55 758.71 288.30 758.35 287.88 L 755.05 283.93 C 754.70 283.49 754.55 283.00 754.60 282.45 Z M 758.05 266.93 C 758.37 267.38 758.47 267.88 758.38 268.43 L 757.38 273.88 C 757.27 274.41 756.99 274.84 756.52 275.15 C 756.08 275.46 755.59 275.57 755.05 275.47 C 754.50 275.37 754.07 275.08 753.75 274.62 C 753.43 274.17 753.33 273.67 753.42 273.12 L 754.42 267.67 C 754.53 267.14 754.81 266.71 755.27 266.40 C 755.72 266.08 756.21 265.98 756.75 266.07 C 757.30 266.18 757.73 266.46 758.05 266.93 Z M 656.80 339.43 C 656.66 339.96 656.35 340.37 655.88 340.65 L 650.52 343.85 C 650.05 344.14 649.55 344.23 649.02 344.10 C 648.49 343.96 648.08 343.65 647.80 343.18 C 647.51 342.70 647.42 342.20 647.55 341.68 C 647.69 341.14 648.00 340.74 648.47 340.45 L 653.83 337.25 C 654.30 336.96 654.80 336.87 655.33 337.00 C 655.86 337.14 656.26 337.45 656.55 337.93 C 656.84 338.39 656.93 338.89 656.80 339.43 Z M 652.45 322.82 C 652.92 322.55 653.42 322.48 653.95 322.62 C 654.48 322.76 654.89 323.06 655.17 323.52 L 658.23 328.62 C 658.50 329.11 658.57 329.62 658.42 330.15 C 658.28 330.68 657.98 331.09 657.50 331.38 C 657.03 331.65 656.53 331.72 656.00 331.57 C 655.47 331.44 655.06 331.14 654.77 330.68 L 651.72 325.57 C 651.45 325.09 651.38 324.58 651.52 324.05 C 651.66 323.52 651.97 323.11 652.45 322.82 Z M 592.52 347.25 C 592.91 346.86 593.38 346.66 593.92 346.65 C 594.47 346.64 594.95 346.84 595.35 347.22 L 599.10 350.87 C 599.49 351.26 599.69 351.73 599.70 352.27 C 599.71 352.82 599.51 353.30 599.12 353.70 C 598.74 354.09 598.27 354.29 597.73 354.30 C 597.17 354.30 596.70 354.11 596.30 353.72 L 592.55 350.07 C 592.16 349.69 591.96 349.22 591.95 348.68 C 591.95 348.12 592.14 347.65 592.52 347.25 Z M 596.10 334.20 C 596.65 334.19 597.13 334.37 597.53 334.75 C 597.93 335.13 598.14 335.60 598.15 336.15 C 598.16 336.71 597.98 337.19 597.60 337.60 L 594.75 340.45 C 594.37 340.84 593.90 341.04 593.35 341.05 C 592.80 341.06 592.33 340.88 591.92 340.50 C 591.52 340.12 591.32 339.65 591.30 339.10 C 591.29 338.54 591.47 338.06 591.85 337.65 L 594.70 334.80 C 595.08 334.41 595.55 334.21 596.10 334.20 Z M 668.70 326.93 C 669.25 327.03 669.68 327.31 670.00 327.78 C 670.32 328.22 670.42 328.71 670.33 329.25 C 670.22 329.80 669.93 330.23 669.47 330.55 L 665.27 333.50 C 664.83 333.81 664.33 333.93 663.80 333.83 C 663.25 333.72 662.82 333.44 662.50 332.98 C 662.18 332.53 662.08 332.04 662.17 331.50 C 662.28 330.95 662.56 330.52 663.02 330.20 L 667.22 327.25 C 667.67 326.94 668.17 326.83 668.70 326.93 Z M 669.25 343.82 C 669.20 344.37 668.95 344.82 668.52 345.18 C 668.10 345.54 667.62 345.69 667.08 345.65 C 666.53 345.60 666.08 345.35 665.72 344.93 L 662.27 340.73 C 661.92 340.30 661.76 339.82 661.80 339.28 C 661.85 338.73 662.10 338.28 662.52 337.93 C 662.95 337.56 663.43 337.41 663.97 337.45 C 664.52 337.50 664.97 337.75 665.33 338.18 L 668.77 342.38 C 669.13 342.80 669.29 343.28 669.25 343.82 Z M 745.08 283.95 C 745.15 283.41 745.41 282.98 745.85 282.65 L 750.10 279.55 C 750.55 279.22 751.05 279.09 751.60 279.17 C 752.14 279.26 752.57 279.53 752.90 279.97 C 753.23 280.42 753.36 280.91 753.27 281.45 C 753.20 281.99 752.94 282.42 752.50 282.75 L 748.25 285.85 C 747.80 286.18 747.30 286.31 746.75 286.23 C 746.21 286.14 745.77 285.87 745.45 285.43 C 745.12 284.98 744.99 284.49 745.08 283.95 Z M 743.08 271.80 C 743.00 271.25 743.14 270.76 743.47 270.32 C 743.81 269.89 744.25 269.64 744.80 269.57 C 745.35 269.50 745.84 269.64 746.27 269.97 L 752.12 274.47 C 752.56 274.81 752.81 275.25 752.88 275.80 C 752.95 276.35 752.81 276.84 752.48 277.27 C 752.14 277.71 751.70 277.96 751.15 278.02 C 750.60 278.09 750.11 277.96 749.67 277.62 L 743.83 273.12 C 743.39 272.79 743.14 272.34 743.08 271.80 Z M 734.10 220.68 L 734.08 220.65 C 732.00 218.55 729.51 217.50 726.60 217.50 C 723.67 217.51 721.14 218.56 719.00 220.68 C 716.90 222.75 715.85 225.24 715.85 228.15 C 715.85 231.13 716.90 233.65 719.00 235.73 C 721.14 237.84 723.67 238.90 726.60 238.90 C 729.51 238.90 732.00 237.85 734.08 235.75 L 734.10 235.73 C 736.20 233.65 737.25 231.13 737.25 228.15 C 737.25 225.24 736.20 222.75 734.10 220.68 Z M 726.60 213.50 C 730.61 213.50 734.04 214.94 736.90 217.82 L 736.92 217.85 C 739.81 220.71 741.25 224.14 741.25 228.15 C 741.25 232.23 739.81 235.70 736.92 238.55 L 736.90 238.57 C 734.04 241.46 730.61 242.90 726.60 242.90 C 722.59 242.91 719.13 241.46 716.20 238.57 C 713.30 235.72 711.85 232.24 711.85 228.15 C 711.85 224.13 713.30 220.68 716.20 217.82 C 719.13 214.94 722.59 213.49 726.60 213.50 Z M 670.77 253.82 C 671.17 253.44 671.64 253.25 672.20 253.25 C 672.76 253.25 673.23 253.44 673.62 253.82 C 674.01 254.22 674.20 254.69 674.20 255.25 L 674.20 264.15 L 683.05 264.15 C 683.61 264.15 684.08 264.34 684.48 264.72 C 684.86 265.12 685.05 265.59 685.05 266.15 C 685.05 266.71 684.86 267.18 684.48 267.57 C 684.08 267.96 683.61 268.15 683.05 268.15 L 674.20 268.15 L 674.20 277.05 C 674.20 277.61 674.01 278.08 673.62 278.47 C 673.23 278.86 672.76 279.05 672.20 279.05 C 671.64 279.05 671.17 278.86 670.77 278.47 C 670.39 278.08 670.20 277.61 670.20 277.05 L 670.20 268.15 L 661.30 268.15 C 660.74 268.15 660.27 267.96 659.88 267.57 C 659.49 267.18 659.30 266.71 659.30 266.15 C 659.30 265.59 659.49 265.12 659.88 264.72 C 660.27 264.34 660.74 264.15 661.30 264.15 L 670.20 264.15 L 670.20 255.25 C 670.20 254.69 670.39 254.22 670.77 253.82 Z M 663.38 184.32 C 662.99 183.93 662.80 183.46 662.80 182.90 C 662.80 182.34 662.99 181.87 663.38 181.47 C 663.77 181.09 664.24 180.90 664.80 180.90 L 672.65 180.90 L 672.65 173.00 C 672.65 172.44 672.84 171.97 673.23 171.57 C 673.62 171.19 674.09 171.00 674.65 171.00 C 675.21 171.00 675.68 171.19 676.08 171.57 C 676.46 171.97 676.65 172.44 676.65 173.00 L 676.65 180.90 L 684.55 180.90 C 685.11 180.90 685.58 181.09 685.98 181.47 C 686.36 181.87 686.55 182.34 686.55 182.90 C 686.55 183.46 686.36 183.93 685.98 184.32 C 685.58 184.71 685.11 184.90 684.55 184.90 L 676.65 184.90 L 676.65 192.80 C 676.65 193.36 676.46 193.83 676.08 194.22 C 675.68 194.61 675.21 194.80 674.65 194.80 C 674.09 194.80 673.62 194.61 673.23 194.22 C 672.84 193.83 672.65 193.36 672.65 192.80 L 672.65 184.90 L 664.80 184.90 C 664.24 184.90 663.77 184.71 663.38 184.32 Z M 658.55 78.53 C 659.01 77.84 659.64 77.41 660.45 77.25 C 661.26 77.09 662.01 77.24 662.70 77.70 C 663.40 78.16 663.83 78.79 664.00 79.60 C 664.16 80.42 664.01 81.17 663.55 81.88 L 660.35 86.62 C 659.89 87.31 659.26 87.74 658.45 87.90 C 657.64 88.06 656.89 87.91 656.20 87.45 C 655.50 86.99 655.07 86.36 654.90 85.55 C 654.74 84.73 654.89 83.98 655.35 83.28 L 658.55 78.53 Z M 682.48 45.15 C 683.29 45.00 684.04 45.16 684.73 45.62 C 685.41 46.09 685.84 46.72 686.00 47.52 C 686.15 48.34 685.99 49.09 685.52 49.77 L 670.88 71.33 C 670.41 72.01 669.78 72.44 668.98 72.60 C 668.16 72.75 667.41 72.59 666.73 72.12 C 666.04 71.66 665.61 71.03 665.45 70.22 C 665.30 69.41 665.46 68.66 665.93 67.97 L 680.58 46.42 C 681.04 45.74 681.67 45.31 682.48 45.15 Z M 456.18 336.00 C 457.92 337.72 458.80 339.82 458.80 342.30 C 458.81 344.75 457.93 346.86 456.18 348.62 C 454.45 350.34 452.34 351.20 449.85 351.20 C 447.46 351.21 445.37 350.36 443.58 348.65 C 443.56 348.63 443.54 348.62 443.53 348.60 C 441.81 346.84 440.95 344.74 440.95 342.30 C 440.95 339.81 441.81 337.70 443.53 335.97 L 443.55 335.97 C 445.35 334.22 447.45 333.34 449.85 333.35 C 452.33 333.35 454.43 334.23 456.15 335.97 L 456.18 336.00 Z M 453.35 338.82 L 453.33 338.80 C 452.38 337.83 451.22 337.35 449.85 337.35 C 448.52 337.36 447.35 337.85 446.35 338.83 L 446.38 338.83 C 445.42 339.77 444.95 340.93 444.95 342.30 C 444.95 343.63 445.41 344.78 446.32 345.75 C 446.34 345.77 446.36 345.78 446.38 345.80 C 447.37 346.73 448.53 347.19 449.85 347.20 C 451.22 347.20 452.38 346.73 453.33 345.78 C 454.30 344.81 454.79 343.65 454.80 342.30 C 454.80 340.93 454.32 339.77 453.35 338.82 Z M 583.08 346.43 C 583.47 346.04 583.94 345.85 584.50 345.85 C 585.06 345.85 585.53 346.04 585.92 346.43 C 586.31 346.82 586.50 347.29 586.50 347.85 C 586.50 348.41 586.31 348.88 585.92 349.28 L 582.12 353.03 C 581.73 353.41 581.26 353.60 580.70 353.60 C 580.14 353.60 579.67 353.41 579.27 353.03 C 578.89 352.63 578.70 352.16 578.70 351.60 C 578.70 351.04 578.89 350.57 579.27 350.18 L 583.08 346.43 Z M 578.25 334.82 C 578.26 334.27 578.46 333.81 578.85 333.43 C 579.25 333.04 579.72 332.85 580.28 332.85 C 580.83 332.86 581.31 333.06 581.70 333.45 L 584.60 336.40 C 584.98 336.80 585.16 337.27 585.15 337.83 C 585.14 338.38 584.95 338.84 584.55 339.23 C 584.15 339.61 583.68 339.81 583.12 339.80 C 582.57 339.79 582.09 339.59 581.70 339.20 L 578.80 336.25 C 578.42 335.85 578.24 335.38 578.25 334.82 Z M 539.70 289.48 C 540.07 289.89 540.23 290.38 540.20 290.93 C 540.16 291.48 539.94 291.93 539.52 292.30 C 539.11 292.67 538.62 292.83 538.08 292.80 C 512.34 291.10 485.87 290.00 458.68 289.50 C 458.12 289.49 457.64 289.28 457.25 288.88 C 456.87 288.48 456.69 288.00 456.70 287.45 C 456.71 286.90 456.92 286.43 457.32 286.05 C 457.72 285.67 458.18 285.49 458.72 285.50 C 485.99 286.00 512.52 287.10 538.33 288.80 C 538.88 288.84 539.34 289.06 539.70 289.48 Z M 573.98 294.98 C 573.62 294.55 573.46 294.07 573.50 293.53 C 573.55 292.98 573.80 292.53 574.23 292.18 C 574.65 291.81 575.13 291.66 575.67 291.70 C 640.73 297.58 700.90 307.49 756.20 321.45 C 756.73 321.59 757.14 321.90 757.42 322.38 C 757.71 322.85 757.78 323.36 757.65 323.90 C 757.51 324.43 757.20 324.84 756.73 325.12 C 756.25 325.41 755.74 325.48 755.20 325.35 C 700.10 311.44 640.14 301.56 575.33 295.70 C 574.78 295.65 574.33 295.40 573.98 294.98 Z M 333.43 346.12 C 333.93 346.36 334.28 346.73 334.48 347.25 L 337.28 354.60 C 337.47 355.12 337.45 355.62 337.23 356.12 C 336.99 356.63 336.62 356.98 336.10 357.18 C 335.59 357.37 335.08 357.35 334.58 357.12 C 334.07 356.89 333.72 356.52 333.53 356.00 L 330.73 348.65 C 330.53 348.13 330.55 347.63 330.78 347.12 C 331.01 346.62 331.38 346.27 331.90 346.07 C 332.41 345.88 332.92 345.90 333.43 346.12 Z M 315.77 355.27 C 315.24 355.20 314.80 354.94 314.47 354.50 C 314.14 354.06 314.00 353.57 314.07 353.02 C 314.14 352.48 314.39 352.04 314.82 351.70 L 323.72 344.95 C 324.17 344.62 324.67 344.50 325.22 344.57 C 325.76 344.65 326.20 344.91 326.52 345.35 C 326.86 345.79 327.00 346.28 326.92 346.82 C 326.86 347.37 326.61 347.81 326.17 348.15 L 317.27 354.90 C 316.83 355.23 316.33 355.35 315.77 355.27 Z M 313.55 334.38 C 313.79 333.88 314.18 333.53 314.70 333.35 C 315.22 333.17 315.73 333.20 316.22 333.45 L 323.87 337.15 C 324.37 337.39 324.71 337.78 324.90 338.30 C 325.08 338.82 325.04 339.33 324.80 339.82 C 324.55 340.32 324.17 340.67 323.65 340.85 C 323.13 341.03 322.62 341.00 322.12 340.75 L 314.47 337.05 C 313.98 336.80 313.63 336.42 313.45 335.90 C 313.27 335.38 313.31 334.87 313.55 334.38 Z M 328.43 335.12 C 328.04 334.73 327.85 334.26 327.85 333.70 L 327.85 328.15 C 327.85 327.59 328.04 327.12 328.43 326.72 C 328.82 326.34 329.29 326.15 329.85 326.15 C 330.41 326.15 330.88 326.34 331.28 326.72 C 331.66 327.12 331.85 327.59 331.85 328.15 L 331.85 333.70 C 331.85 334.26 331.66 334.73 331.28 335.12 C 330.88 335.51 330.41 335.70 329.85 335.70 C 329.29 335.70 328.82 335.51 328.43 335.12 Z M 344.65 335.57 C 345.17 335.77 345.54 336.12 345.77 336.62 C 346.00 337.13 346.02 337.63 345.82 338.15 C 345.63 338.67 345.28 339.04 344.77 339.27 L 337.62 342.62 C 337.12 342.85 336.61 342.87 336.10 342.68 C 335.58 342.48 335.21 342.13 334.98 341.62 C 334.75 341.12 334.73 340.62 334.93 340.10 C 335.12 339.58 335.47 339.21 335.98 338.98 L 343.12 335.62 C 343.63 335.40 344.14 335.38 344.65 335.57 Z M 372.88 286.50 C 373.28 286.88 373.48 287.35 373.50 287.90 C 373.51 288.45 373.33 288.92 372.95 289.32 C 372.57 289.73 372.10 289.93 371.55 289.95 C 354.01 290.45 336.77 291.22 319.82 292.25 C 319.27 292.28 318.79 292.12 318.38 291.75 C 317.96 291.38 317.73 290.92 317.70 290.38 C 317.67 289.82 317.83 289.34 318.20 288.93 C 318.57 288.51 319.03 288.29 319.57 288.25 C 336.57 287.22 353.86 286.45 371.45 285.95 C 372.00 285.94 372.47 286.12 372.88 286.50 Z M 162.85 265.62 L 162.88 265.62 C 165.33 268.09 166.56 271.03 166.55 274.45 C 166.55 277.94 165.33 280.92 162.88 283.38 L 162.85 283.38 C 160.40 285.79 157.45 287.00 154.00 287.00 C 150.59 287.00 147.65 285.79 145.15 283.38 L 145.12 283.38 C 142.67 280.92 141.45 277.94 141.45 274.45 C 141.44 271.03 142.67 268.09 145.12 265.62 L 145.15 265.62 C 147.64 263.21 150.59 262.00 154.00 262.00 C 157.44 262.00 160.40 263.21 162.85 265.62 Z M 160.03 268.48 L 160.05 268.48 C 158.37 266.82 156.35 266.00 154.00 266.00 C 151.67 266.00 149.65 266.82 147.95 268.48 L 147.97 268.48 C 146.30 270.14 145.46 272.13 145.45 274.45 C 145.45 276.83 146.29 278.85 147.97 280.53 L 147.95 280.53 C 149.65 282.18 151.67 283.00 154.00 283.00 C 156.35 283.00 158.37 282.18 160.05 280.53 L 160.03 280.53 C 161.71 278.85 162.55 276.83 162.55 274.45 C 162.54 272.13 161.70 270.14 160.03 268.48 Z M 190.80 331.15 C 191.29 330.88 191.80 330.82 192.32 330.97 C 192.85 331.14 193.24 331.46 193.50 331.95 C 193.77 332.44 193.83 332.95 193.68 333.47 C 193.51 334.00 193.19 334.39 192.70 334.65 L 186.80 337.85 C 186.31 338.12 185.80 338.18 185.28 338.02 C 184.75 337.86 184.36 337.54 184.10 337.05 C 183.83 336.56 183.77 336.05 183.93 335.52 C 184.09 335.00 184.41 334.61 184.90 334.35 L 190.80 331.15 Z M 189.82 317.35 C 190.37 317.39 190.83 317.61 191.20 318.03 L 194.90 322.28 C 195.27 322.69 195.43 323.18 195.40 323.73 C 195.37 324.28 195.14 324.73 194.72 325.10 C 194.31 325.47 193.82 325.63 193.28 325.60 C 192.72 325.56 192.27 325.34 191.90 324.93 L 188.20 320.68 C 187.83 320.26 187.67 319.77 187.70 319.23 C 187.74 318.68 187.96 318.22 188.38 317.85 C 188.79 317.48 189.27 317.32 189.82 317.35 Z M 203.55 320.82 C 203.98 320.46 204.47 320.31 205.03 320.35 C 205.57 320.40 206.02 320.64 206.38 321.07 C 206.74 321.50 206.90 321.98 206.85 322.52 C 206.80 323.07 206.57 323.52 206.15 323.88 L 202.30 327.23 C 201.87 327.58 201.38 327.74 200.83 327.70 C 200.28 327.65 199.83 327.40 199.47 326.98 C 199.12 326.56 198.96 326.07 199.00 325.53 C 199.05 324.98 199.28 324.53 199.70 324.18 L 203.55 320.82 Z M 200.10 331.43 C 200.63 331.27 201.14 331.33 201.62 331.60 L 206.78 334.50 C 207.25 334.77 207.57 335.17 207.72 335.70 C 207.88 336.23 207.82 336.74 207.55 337.22 C 207.28 337.71 206.88 338.02 206.35 338.17 C 205.82 338.33 205.31 338.27 204.82 338.00 L 199.68 335.10 C 199.19 334.83 198.88 334.43 198.72 333.90 C 198.57 333.37 198.63 332.86 198.90 332.38 C 199.17 331.89 199.57 331.58 200.10 331.43 Z M 79.40 328.48 C 78.92 328.20 78.61 327.80 78.47 327.28 C 78.33 326.74 78.40 326.23 78.67 325.75 C 78.95 325.27 79.35 324.97 79.87 324.83 C 141.51 308.36 209.38 297.03 283.47 290.85 C 284.02 290.81 284.50 290.96 284.92 291.33 C 285.35 291.68 285.60 292.13 285.65 292.68 C 285.69 293.22 285.54 293.70 285.17 294.13 C 284.82 294.56 284.37 294.80 283.82 294.85 C 209.99 301.00 142.35 312.28 80.92 328.68 C 80.39 328.82 79.88 328.75 79.40 328.48 Z M 41.75 339.57 C 41.26 339.33 40.92 338.94 40.75 338.43 C 40.58 337.90 40.62 337.39 40.88 336.90 C 41.12 336.41 41.51 336.07 42.02 335.90 C 48.88 333.69 55.79 331.60 62.75 329.63 C 63.28 329.47 63.79 329.53 64.28 329.80 C 64.76 330.07 65.07 330.47 65.22 331.00 C 65.38 331.53 65.32 332.04 65.05 332.53 C 64.78 333.01 64.38 333.32 63.85 333.48 C 56.94 335.43 50.08 337.51 43.27 339.70 C 42.75 339.87 42.24 339.83 41.75 339.57 Z M 33.30 339.27 C 33.79 339.52 34.13 339.91 34.30 340.42 C 34.47 340.95 34.43 341.46 34.17 341.95 C 33.92 342.44 33.53 342.78 33.00 342.95 C 30.43 343.77 27.88 344.63 25.38 345.52 C 24.86 345.71 24.35 345.68 23.85 345.45 C 23.35 345.21 23.01 344.84 22.83 344.32 C 22.64 343.81 22.66 343.30 22.90 342.80 C 23.13 342.30 23.51 341.96 24.03 341.77 C 26.58 340.87 29.18 339.99 31.80 339.15 C 32.31 338.98 32.81 339.02 33.30 339.27 Z M 80.92 290.48 C 81.32 290.09 81.79 289.90 82.35 289.90 C 82.91 289.90 83.38 290.09 83.78 290.48 L 87.47 294.12 C 87.86 294.52 88.05 294.99 88.05 295.55 C 88.05 296.11 87.86 296.58 87.47 296.98 C 87.08 297.36 86.61 297.55 86.05 297.55 C 85.49 297.55 85.02 297.36 84.62 296.98 L 80.92 293.33 C 80.54 292.93 80.35 292.46 80.35 291.90 C 80.35 291.34 80.54 290.87 80.92 290.48 Z M 71.42 289.70 C 71.81 289.31 72.28 289.11 72.83 289.10 C 73.38 289.09 73.85 289.29 74.25 289.67 C 74.64 290.06 74.84 290.53 74.85 291.07 C 74.86 291.62 74.66 292.10 74.28 292.50 L 70.53 296.25 C 70.14 296.64 69.67 296.84 69.13 296.85 C 68.57 296.86 68.10 296.66 67.70 296.27 C 67.31 295.89 67.11 295.42 67.10 294.88 C 67.09 294.32 67.29 293.85 67.67 293.45 L 71.42 289.70 Z M 67.15 279.50 C 66.77 279.10 66.59 278.63 66.60 278.07 C 66.61 277.52 66.81 277.06 67.20 276.68 C 67.60 276.29 68.07 276.10 68.62 276.10 C 69.18 276.11 69.66 276.31 70.05 276.70 L 72.95 279.65 C 73.33 280.05 73.51 280.52 73.50 281.08 C 73.49 281.62 73.29 282.09 72.90 282.48 C 72.50 282.86 72.03 283.06 71.47 283.05 C 70.92 283.04 70.44 282.84 70.05 282.45 L 67.15 279.50 Z M 84.45 277.45 C 85.00 277.44 85.47 277.62 85.88 278.00 C 86.28 278.38 86.48 278.85 86.50 279.40 C 86.51 279.96 86.33 280.44 85.95 280.85 L 83.10 283.70 C 82.72 284.09 82.25 284.29 81.70 284.30 C 81.15 284.31 80.67 284.13 80.28 283.75 C 79.87 283.37 79.67 282.90 79.65 282.35 C 79.64 281.79 79.82 281.31 80.20 280.90 L 83.05 278.05 C 83.43 277.66 83.90 277.46 84.45 277.45 Z M 116.33 207.03 C 116.72 206.64 117.19 206.45 117.75 206.45 C 118.31 206.45 118.78 206.64 119.17 207.03 C 119.56 207.42 119.75 207.89 119.75 208.45 L 119.75 218.85 L 130.05 218.85 C 130.61 218.84 131.08 219.04 131.47 219.42 C 131.86 219.82 132.05 220.29 132.05 220.85 C 132.05 221.41 131.86 221.88 131.47 222.28 C 131.08 222.66 130.61 222.85 130.05 222.85 L 119.75 222.85 L 119.75 233.20 C 119.75 233.76 119.56 234.23 119.17 234.62 C 118.78 235.01 118.31 235.20 117.75 235.20 C 117.19 235.20 116.72 235.01 116.33 234.62 C 115.94 234.23 115.75 233.76 115.75 233.20 L 115.75 222.85 L 105.40 222.85 C 104.84 222.85 104.37 222.66 103.97 222.28 C 103.59 221.88 103.40 221.41 103.40 220.85 C 103.40 220.29 103.59 219.82 103.97 219.43 C 104.37 219.04 104.84 218.85 105.40 218.85 L 115.75 218.85 L 115.75 208.45 C 115.75 207.90 115.94 207.42 116.33 207.03 Z M 182.57 157.43 C 182.97 157.04 183.44 156.85 184.00 156.85 C 184.56 156.85 185.03 157.04 185.43 157.43 C 185.81 157.82 186.00 158.29 186.00 158.85 L 186.00 166.75 L 193.90 166.75 C 194.46 166.75 194.93 166.94 195.32 167.32 C 195.71 167.72 195.90 168.19 195.90 168.75 C 195.90 169.31 195.71 169.78 195.32 170.18 C 194.93 170.56 194.46 170.75 193.90 170.75 L 186.00 170.75 L 186.00 178.65 C 186.00 179.21 185.81 179.68 185.43 180.07 C 185.03 180.46 184.56 180.65 184.00 180.65 C 183.44 180.65 182.97 180.46 182.57 180.07 C 182.19 179.68 182.00 179.21 182.00 178.65 L 182.00 170.75 L 174.15 170.75 C 173.59 170.75 173.12 170.56 172.72 170.18 C 172.34 169.78 172.15 169.31 172.15 168.75 C 172.15 168.19 172.34 167.72 172.72 167.32 C 173.12 166.94 173.59 166.75 174.15 166.75 L 182.00 166.75 L 182.00 158.85 C 182.00 158.29 182.19 157.82 182.57 157.43 Z M 216.30 60.00 C 216.09 59.21 216.19 58.45 216.60 57.73 C 217.01 57.00 217.61 56.52 218.40 56.30 C 219.19 56.08 219.95 56.19 220.68 56.60 C 221.40 57.01 221.87 57.60 222.10 58.40 L 222.55 60.20 C 222.76 60.99 222.66 61.75 222.25 62.48 C 221.84 63.20 221.24 63.67 220.45 63.90 C 219.66 64.12 218.90 64.02 218.18 63.60 C 217.45 63.20 216.98 62.59 216.75 61.80 L 216.30 60.00 Z M 180.20 37.15 L 180.18 37.17 C 173.71 43.77 171.27 50.28 172.85 56.73 C 174.69 63.03 180.06 67.40 188.95 69.85 L 188.93 69.85 C 198.78 72.46 209.69 72.18 221.65 69.00 C 224.13 68.31 228.76 66.63 235.55 63.95 C 236.27 63.67 236.99 63.66 237.70 63.92 L 249.00 68.10 L 246.55 59.10 C 246.40 58.54 246.41 57.98 246.57 57.42 C 246.74 56.88 247.04 56.42 247.47 56.05 C 248.45 55.20 249.39 54.35 250.28 53.50 C 250.29 53.48 250.31 53.47 250.32 53.45 C 256.86 46.84 259.35 40.33 257.80 33.92 C 255.96 27.57 250.52 23.17 241.47 20.75 L 241.45 20.75 C 231.75 18.11 220.91 18.39 208.93 21.60 C 197.01 24.78 187.43 29.96 180.20 37.15 Z M 212.18 33.00 C 210.73 33.38 209.61 34.22 208.80 35.50 C 208.13 36.77 207.97 38.14 208.30 39.60 C 208.48 40.09 208.61 40.55 208.70 41.00 C 208.86 41.81 208.71 42.56 208.25 43.25 C 207.79 43.95 207.16 44.38 206.35 44.55 C 205.54 44.71 204.79 44.56 204.10 44.10 C 203.41 43.64 202.97 43.01 202.80 42.20 C 202.76 42.00 202.70 41.79 202.62 41.58 C 202.60 41.48 202.57 41.39 202.55 41.30 C 201.75 38.23 202.06 35.37 203.50 32.70 C 203.52 32.66 203.55 32.62 203.57 32.58 C 205.23 29.80 207.58 28.00 210.62 27.20 C 213.67 26.40 216.53 26.78 219.22 28.35 C 222.09 29.90 223.94 32.22 224.75 35.33 L 224.75 35.30 C 225.60 38.39 225.19 41.32 223.53 44.10 C 223.50 44.14 223.48 44.18 223.45 44.23 C 222.49 45.92 221.23 47.23 219.65 48.17 L 219.67 48.15 C 219.57 48.21 219.47 48.27 219.37 48.33 L 220.20 51.48 C 220.41 52.28 220.30 53.03 219.87 53.75 C 219.46 54.47 218.85 54.94 218.05 55.15 C 217.26 55.36 216.51 55.25 215.80 54.83 C 215.08 54.41 214.61 53.81 214.40 53.02 L 212.90 47.33 C 212.76 46.80 212.76 46.28 212.90 45.75 C 213.05 45.23 213.33 44.78 213.72 44.40 C 214.12 44.02 214.58 43.76 215.10 43.62 C 215.62 43.50 216.09 43.31 216.53 43.05 L 216.55 43.02 C 217.26 42.59 217.84 41.98 218.28 41.20 C 218.30 41.16 218.32 41.12 218.35 41.08 C 219.15 39.76 219.35 38.37 218.95 36.90 L 218.95 36.88 C 218.56 35.44 217.71 34.37 216.38 33.65 C 216.34 33.62 216.29 33.60 216.25 33.58 C 214.98 32.81 213.62 32.62 212.18 33.00 Z M 167.05 58.27 C 164.63 49.86 167.58 41.42 175.90 32.95 L 175.93 32.92 C 183.82 24.99 194.31 19.28 207.38 15.80 C 220.52 12.28 232.41 11.99 243.05 14.95 C 254.66 18.07 261.51 23.88 263.60 32.38 C 265.98 40.76 262.96 49.20 254.53 57.70 C 254.51 57.71 254.49 57.73 254.47 57.75 C 253.95 58.26 253.40 58.78 252.85 59.30 L 256.35 72.15 C 256.55 72.89 256.47 73.61 256.12 74.30 C 255.78 74.99 255.26 75.47 254.55 75.75 C 253.83 76.03 253.12 76.04 252.40 75.78 L 236.68 69.97 C 230.18 72.52 225.71 74.13 223.25 74.80 L 223.22 74.80 C 210.13 78.28 198.18 78.57 187.38 75.65 L 187.35 75.65 C 175.91 72.50 169.15 66.71 167.05 58.27 Z M 499.75 59.95 C 500.44 59.50 501.19 59.35 502.00 59.52 C 502.81 59.69 503.44 60.11 503.90 60.80 C 504.35 61.49 504.50 62.24 504.32 63.05 C 504.16 63.86 503.74 64.49 503.05 64.95 L 483.15 78.05 C 482.46 78.50 481.71 78.64 480.90 78.47 C 480.09 78.31 479.46 77.89 479.00 77.20 C 478.55 76.51 478.40 75.76 478.58 74.95 C 478.74 74.14 479.17 73.51 479.85 73.05 L 499.75 59.95 Z M 491.15 37.17 C 491.97 37.08 492.70 37.29 493.35 37.80 C 494.00 38.31 494.38 38.98 494.47 39.80 C 494.57 40.62 494.36 41.35 493.85 42.00 L 474.40 66.95 C 473.88 67.60 473.22 67.97 472.40 68.08 C 471.58 68.17 470.85 67.96 470.20 67.45 C 469.55 66.94 469.17 66.27 469.07 65.45 C 468.98 64.63 469.19 63.90 469.70 63.25 L 489.15 38.30 C 489.67 37.65 490.33 37.27 491.15 37.17 Z M 455.45 61.12 C 455.01 60.41 454.89 59.66 455.07 58.85 L 460.18 37.35 C 460.37 36.55 460.82 35.93 461.53 35.50 C 462.24 35.06 462.99 34.94 463.80 35.12 C 464.60 35.32 465.22 35.77 465.65 36.48 C 466.09 37.19 466.21 37.94 466.03 38.75 L 460.93 60.25 C 460.73 61.05 460.28 61.67 459.57 62.10 C 458.87 62.54 458.11 62.66 457.30 62.48 C 456.50 62.28 455.88 61.83 455.45 61.12 Z"
      fill="#aaaaaa" fill-rule="nonzero" group-id="1" node-id="24" stroke="none" target-height="345.38"
      target-width="804.13" target-x="22.64" target-y="11.99"></path>
  </g>
  <path
    d="M 465.10 263.20 C 465.93 263.20 466.65 263.50 467.25 264.10 C 467.82 264.67 468.10 265.37 468.10 266.20 C 468.10 267.37 468.07 268.53 468.00 269.70 L 468.00 269.75 C 467.37 277.32 464.58 284.20 459.65 290.40 C 459.15 291.03 458.48 291.40 457.65 291.50 C 456.82 291.57 456.08 291.35 455.45 290.85 C 454.78 290.35 454.42 289.68 454.35 288.85 C 454.25 288.02 454.45 287.28 454.95 286.65 C 459.08 281.42 461.43 275.62 462.00 269.25 C 462.07 268.25 462.10 267.23 462.10 266.20 C 462.10 265.37 462.40 264.67 463.00 264.10 C 463.57 263.50 464.27 263.20 465.10 263.20 Z M 572.75 277.20 C 572.81 276.38 573.15 275.69 573.77 275.15 C 574.40 274.60 575.13 274.35 575.95 274.40 C 576.77 274.46 577.46 274.80 578.00 275.42 C 578.55 276.05 578.80 276.77 578.75 277.60 L 577.45 296.60 C 577.39 297.42 577.05 298.11 576.42 298.65 C 575.80 299.20 575.07 299.45 574.25 299.40 C 573.43 299.34 572.74 299.00 572.20 298.38 C 571.65 297.75 571.40 297.02 571.45 296.20 L 572.75 277.20 Z M 332.15 268.48 C 332.69 267.85 333.38 267.51 334.20 267.45 C 335.02 267.40 335.75 267.65 336.38 268.20 C 337.00 268.75 337.34 269.43 337.40 270.25 L 338.15 280.95 C 338.20 281.77 337.95 282.50 337.40 283.13 C 336.85 283.75 336.17 284.09 335.35 284.15 L 322.35 285.08 L 322.70 290.38 C 322.75 291.20 322.50 291.93 321.95 292.55 C 321.39 293.17 320.70 293.50 319.88 293.55 C 319.05 293.60 318.32 293.35 317.70 292.80 C 317.08 292.24 316.75 291.55 316.70 290.73 L 316.15 282.48 C 316.10 281.66 316.35 280.94 316.90 280.33 C 317.44 279.70 318.13 279.36 318.95 279.30 L 331.95 278.38 L 331.40 270.65 C 331.35 269.82 331.60 269.10 332.15 268.48 Z M 278.00 250.45 L 275.35 213.03 L 260.23 251.67 L 278.00 250.45 Z M 415.20 135.55 L 415.15 135.55 C 412.45 135.55 410.15 136.45 408.25 138.25 L 408.20 138.25 C 406.37 140.02 405.45 142.13 405.45 144.60 L 405.45 261.25 C 405.45 263.72 406.37 265.83 408.20 267.60 L 408.25 267.60 C 410.15 269.40 412.45 270.30 415.15 270.30 L 415.20 270.30 C 417.90 270.30 420.20 269.40 422.10 267.60 L 422.10 267.55 C 423.97 265.82 424.90 263.72 424.90 261.25 L 424.90 144.60 C 424.90 142.13 423.97 140.02 422.10 138.25 C 420.20 136.45 417.90 135.55 415.20 135.55 Z M 426.25 133.90 C 429.35 136.87 430.90 140.43 430.90 144.60 L 430.90 261.25 C 430.90 265.45 429.35 269.02 426.25 271.95 L 426.20 271.95 C 423.17 274.85 419.50 276.30 415.20 276.30 L 415.15 276.30 C 410.85 276.30 407.17 274.85 404.10 271.95 C 401.00 269.02 399.45 265.45 399.45 261.25 L 399.45 144.60 C 399.45 140.43 401.00 136.87 404.10 133.90 L 404.10 133.85 C 407.17 130.98 410.85 129.55 415.15 129.55 L 415.20 129.55 C 419.50 129.55 423.17 131.00 426.20 133.90 L 426.25 133.90 Z M 462.10 140.20 C 462.07 129.80 457.52 120.82 448.45 113.25 C 439.22 105.48 428.13 101.60 415.20 101.60 C 402.27 101.60 391.17 105.48 381.90 113.25 C 372.87 120.82 368.33 129.80 368.30 140.20 L 368.30 266.20 C 368.30 267.20 368.35 268.22 368.45 269.25 C 368.98 275.62 371.32 281.42 375.45 286.65 C 377.28 288.92 379.42 291.08 381.85 293.15 C 382.88 293.98 383.95 294.77 385.05 295.50 L 385.10 295.55 C 393.67 301.35 403.70 304.23 415.20 304.20 C 426.70 304.20 436.75 301.32 445.35 295.55 C 446.02 295.05 446.77 294.88 447.60 295.05 C 448.40 295.22 449.03 295.65 449.50 296.35 C 449.97 297.02 450.12 297.77 449.95 298.60 C 449.78 299.40 449.37 300.03 448.70 300.50 C 439.13 306.97 427.97 310.20 415.20 310.20 C 402.43 310.17 391.28 306.93 381.75 300.50 C 380.52 299.70 379.30 298.82 378.10 297.85 C 378.07 297.82 378.03 297.80 378.00 297.80 C 375.20 295.43 372.78 292.97 370.75 290.40 C 365.81 284.20 363.05 277.32 362.45 269.75 C 362.35 268.58 362.30 267.40 362.30 266.20 L 362.30 140.20 C 362.27 128.00 367.52 117.48 378.05 108.65 C 388.42 99.95 400.80 95.60 415.20 95.60 C 429.60 95.60 441.97 99.95 452.30 108.65 C 462.87 117.48 468.13 128.00 468.10 140.20 L 468.10 255.25 C 468.10 256.08 467.82 256.80 467.25 257.40 C 466.65 257.97 465.93 258.25 465.10 258.25 C 464.27 258.25 463.57 257.97 463.00 257.40 C 462.40 256.80 462.10 256.08 462.10 255.25 L 462.10 140.20 Z M 553.30 105.12 L 553.20 105.10 L 587.65 107.50 C 588.47 107.56 589.15 107.90 589.70 108.53 C 590.25 109.15 590.50 109.88 590.45 110.70 L 579.75 263.40 C 579.68 264.23 579.33 264.92 578.70 265.47 C 578.07 266.02 577.35 266.26 576.52 266.20 C 575.70 266.13 575.02 265.78 574.47 265.15 C 573.93 264.53 573.69 263.81 573.75 263.00 L 584.25 113.30 L 552.80 111.10 C 552.77 111.09 552.74 111.08 552.70 111.08 L 538.97 109.62 L 537.07 121.33 L 537.00 122.25 C 536.97 122.55 536.89 122.84 536.77 123.12 C 536.28 124.35 535.79 125.38 535.30 126.20 C 534.12 129.08 532.52 131.71 530.50 134.10 L 530.57 133.97 C 526.27 139.72 520.25 142.65 512.50 142.78 L 510.72 168.40 C 524.36 168.84 535.97 165.60 545.58 158.68 C 546.22 158.21 546.94 158.03 547.72 158.12 C 548.51 158.22 549.16 158.58 549.67 159.20 C 550.18 159.81 550.40 160.51 550.35 161.30 L 540.20 306.80 L 570.55 308.93 L 570.75 305.65 C 570.81 304.83 571.15 304.15 571.77 303.60 C 572.40 303.05 573.12 302.80 573.95 302.85 C 574.77 302.91 575.45 303.25 576.00 303.88 C 576.55 304.50 576.80 305.23 576.75 306.05 L 576.35 312.35 C 576.30 313.17 575.96 313.86 575.33 314.40 C 574.69 314.96 573.96 315.21 573.13 315.15 L 536.78 312.60 C 535.95 312.54 535.27 312.20 534.73 311.58 C 534.18 310.95 533.94 310.23 534.00 309.40 L 543.92 166.88 C 533.59 172.77 521.38 175.23 507.30 174.25 C 506.48 174.19 505.80 173.85 505.25 173.23 C 504.70 172.60 504.45 171.88 504.50 171.05 L 506.70 139.50 C 506.75 138.68 507.10 138.00 507.72 137.45 C 508.35 136.90 509.08 136.65 509.90 136.70 C 516.82 137.19 522.13 135.06 525.83 130.33 C 525.86 130.28 525.89 130.24 525.92 130.20 C 527.58 128.25 528.88 126.09 529.83 123.73 C 529.89 123.56 529.98 123.40 530.08 123.25 C 530.39 122.74 530.71 122.09 531.02 121.33 L 531.10 120.60 C 531.11 120.53 531.11 120.45 531.12 120.38 L 533.47 105.88 C 533.60 105.10 533.99 104.46 534.62 103.98 C 535.25 103.49 535.96 103.29 536.75 103.38 L 553.30 105.12 Z M 255.90 258.00 C 255.21 258.05 254.58 257.87 254.00 257.48 C 253.42 257.08 253.03 256.54 252.82 255.88 C 252.62 255.21 252.64 254.55 252.90 253.90 L 274.60 198.40 C 274.86 197.75 275.29 197.25 275.90 196.90 C 276.51 196.55 277.16 196.42 277.85 196.53 C 278.54 196.63 279.12 196.95 279.60 197.47 C 280.08 197.99 280.35 198.60 280.40 199.30 L 284.20 253.05 C 284.26 253.86 284.02 254.58 283.47 255.20 C 282.92 255.83 282.23 256.18 281.40 256.25 L 255.90 258.00 Z M 217.07 248.30 C 217.08 248.27 217.09 248.24 217.10 248.20 L 269.90 112.95 L 269.92 112.92 C 273.69 103.48 281.29 99.25 292.75 100.25 C 292.80 100.26 292.85 100.27 292.90 100.28 C 304.13 101.81 310.03 107.49 310.60 117.30 L 319.75 247.53 L 332.72 246.60 C 333.56 246.54 334.29 246.79 334.92 247.35 C 335.56 247.90 335.90 248.59 335.95 249.43 L 336.40 256.07 C 336.45 256.90 336.20 257.63 335.65 258.25 C 335.09 258.87 334.40 259.20 333.57 259.25 C 332.75 259.30 332.02 259.05 331.40 258.50 C 330.78 257.94 330.45 257.25 330.40 256.43 L 330.15 252.82 L 317.17 253.75 C 316.35 253.81 315.62 253.57 315.00 253.03 C 314.36 252.47 314.01 251.78 313.95 250.95 L 304.60 117.70 C 304.04 111.15 299.92 107.34 292.25 106.25 C 283.90 105.51 278.31 108.49 275.48 115.17 L 275.50 115.15 L 222.70 250.40 L 222.72 250.30 C 222.17 251.89 221.95 253.46 222.05 255.03 L 223.35 273.12 L 223.35 273.18 C 223.42 274.59 223.73 275.90 224.28 277.10 C 225.10 278.85 226.38 280.42 228.12 281.80 C 231.53 284.10 235.20 285.12 239.15 284.85 L 283.20 281.80 C 284.02 281.75 284.75 282.00 285.38 282.55 C 286.00 283.10 286.34 283.78 286.40 284.60 L 287.80 305.00 L 317.53 302.90 L 317.35 300.27 C 317.29 299.45 317.53 298.73 318.08 298.10 C 318.62 297.47 319.30 297.12 320.13 297.05 C 320.95 296.99 321.67 297.23 322.30 297.77 C 322.93 298.32 323.28 299.00 323.35 299.82 L 323.75 305.47 C 323.81 306.31 323.57 307.04 323.03 307.67 C 322.48 308.30 321.78 308.64 320.95 308.70 L 285.20 311.20 C 284.38 311.25 283.65 311.00 283.03 310.45 C 282.40 309.90 282.06 309.22 282.00 308.40 L 280.60 288.00 L 239.55 290.85 C 234.17 291.24 229.17 289.83 224.55 286.62 C 224.49 286.58 224.44 286.54 224.38 286.50 C 221.85 284.48 220.00 282.18 218.83 279.60 C 217.97 277.74 217.48 275.71 217.35 273.52 L 216.05 255.47 L 216.05 255.45 C 215.89 253.09 216.23 250.70 217.07 248.30 Z"
    fill="url(#SVGID_1_)" fill-rule="evenodd" group-id="2" node-id="29" stroke="none" target-height="219.60999"
    target-width="374.61" target-x="215.89" target-y="95.6"></path>
</svg>
