<?xml version="1.0" standalone="no"?><!DOCTYPE svg PUBLIC "-//W3C//DTD SVG 1.1//EN" "http://www.w3.org/Graphics/SVG/1.1/DTD/svg11.dtd"><svg height="369" node-id="1" sillyvg="true" template-height="369" template-width="850" version="1.1" viewBox="0 0 850 369" width="850" xmlns="http://www.w3.org/2000/svg" xmlns:xlink="http://www.w3.org/1999/xlink"><defs node-id="11"><linearGradient gradientUnits="userSpaceOnUse" id="SVGID_1_" node-id="6" spreadMethod="pad" x1="413.5854" x2="413.5854" y1="314.0088" y2="95.6006"><stop offset="0" stop-color="#777777"></stop><stop offset="1" stop-color="#cccccc"></stop></linearGradient></defs><g node-id="31"><path d="M 455.70 335.98 L 455.72 336.00 C 457.47 337.72 458.35 339.82 458.35 342.30 C 458.36 344.75 457.48 346.86 455.72 348.62 C 454.00 350.34 451.89 351.20 449.40 351.20 C 447.01 351.21 444.92 350.36 443.12 348.65 C 443.11 348.63 443.09 348.62 443.07 348.60 C 441.36 346.84 440.50 344.74 440.50 342.30 C 440.50 339.81 441.36 337.70 443.07 335.97 L 443.10 335.97 C 444.90 334.22 447.00 333.34 449.40 333.35 C 451.88 333.35 453.98 334.23 455.70 335.98 Z M 452.88 338.80 C 451.93 337.83 450.77 337.35 449.40 337.35 C 448.07 337.36 446.90 337.85 445.90 338.83 L 445.92 338.83 C 444.97 339.77 444.50 340.93 444.50 342.30 C 444.50 343.63 444.96 344.78 445.87 345.75 C 445.89 345.77 445.91 345.78 445.92 345.80 C 446.92 346.73 448.08 347.19 449.40 347.20 C 450.77 347.20 451.93 346.73 452.88 345.78 C 453.85 344.81 454.34 343.65 454.35 342.30 C 454.35 340.93 453.87 339.77 452.90 338.82 L 452.88 338.80 Z M 206.32 334.50 C 206.81 334.77 207.12 335.17 207.28 335.70 C 207.43 336.23 207.37 336.74 207.10 337.22 C 206.83 337.71 206.43 338.02 205.90 338.17 C 205.37 338.33 204.86 338.27 204.38 338.00 L 199.22 335.10 C 198.75 334.83 198.43 334.43 198.28 333.90 C 198.12 333.37 198.18 332.86 198.45 332.38 C 198.72 331.89 199.12 331.58 199.65 331.43 C 200.18 331.27 200.69 331.33 201.18 331.60 L 206.32 334.50 Z M 330.32 347.12 C 330.56 346.62 330.93 346.27 331.45 346.07 C 331.96 345.88 332.47 345.90 332.97 346.12 C 333.48 346.36 333.83 346.73 334.02 347.25 L 336.82 354.60 C 337.02 355.12 337.00 355.62 336.77 356.12 C 336.54 356.63 336.17 356.98 335.65 357.18 C 335.13 357.37 334.63 357.35 334.12 357.12 C 333.62 356.89 333.27 356.52 333.07 356.00 L 330.27 348.65 C 330.08 348.13 330.10 347.63 330.32 347.12 Z M 324.77 344.57 C 325.31 344.65 325.75 344.91 326.07 345.35 C 326.41 345.79 326.55 346.28 326.47 346.82 C 326.41 347.37 326.16 347.81 325.72 348.15 L 316.82 354.90 C 316.38 355.23 315.88 355.35 315.32 355.27 C 314.79 355.20 314.35 354.94 314.02 354.50 C 313.69 354.06 313.55 353.57 313.62 353.02 C 313.69 352.48 313.94 352.04 314.38 351.70 L 323.27 344.95 C 323.72 344.62 324.22 344.50 324.77 344.57 Z M 323.43 337.15 C 323.92 337.39 324.26 337.78 324.45 338.30 C 324.63 338.82 324.60 339.33 324.35 339.82 C 324.11 340.32 323.72 340.67 323.20 340.85 C 322.68 341.03 322.17 340.99 321.68 340.75 L 314.03 337.05 C 313.53 336.80 313.19 336.42 313.00 335.90 C 312.82 335.38 312.86 334.87 313.10 334.37 C 313.35 333.87 313.73 333.53 314.25 333.35 C 314.77 333.17 315.28 333.20 315.78 333.45 L 323.43 337.15 Z M 342.68 335.62 C 343.18 335.40 343.69 335.38 344.20 335.57 C 344.72 335.77 345.09 336.12 345.32 336.62 C 345.55 337.13 345.57 337.63 345.38 338.15 C 345.18 338.67 344.83 339.04 344.32 339.27 L 337.18 342.62 C 336.67 342.85 336.16 342.87 335.65 342.68 C 335.13 342.48 334.76 342.13 334.53 341.62 C 334.30 341.12 334.28 340.62 334.48 340.10 C 334.67 339.58 335.02 339.21 335.53 338.98 L 342.68 335.62 Z M 329.40 326.15 C 329.96 326.15 330.43 326.34 330.82 326.72 C 331.21 327.12 331.40 327.59 331.40 328.15 L 331.40 333.70 C 331.40 334.26 331.21 334.73 330.82 335.12 C 330.43 335.51 329.96 335.70 329.40 335.70 C 328.84 335.70 328.37 335.51 327.97 335.12 C 327.59 334.73 327.40 334.26 327.40 333.70 L 327.40 328.15 C 327.40 327.59 327.59 327.12 327.97 326.72 C 328.37 326.34 328.84 326.15 329.40 326.15 Z M 204.57 320.35 C 205.12 320.40 205.57 320.65 205.93 321.08 C 206.28 321.50 206.44 321.98 206.40 322.53 C 206.35 323.07 206.12 323.52 205.70 323.88 L 201.85 327.23 C 201.42 327.59 200.93 327.75 200.38 327.70 C 199.83 327.65 199.38 327.41 199.03 326.98 C 198.66 326.56 198.51 326.07 198.55 325.53 C 198.60 324.98 198.83 324.53 199.25 324.18 L 203.10 320.83 C 203.53 320.46 204.02 320.31 204.57 320.35 Z M 372.57 286.50 C 372.98 286.88 373.18 287.35 373.20 287.90 C 373.21 288.45 373.03 288.92 372.65 289.32 C 372.27 289.73 371.80 289.93 371.25 289.95 C 354.21 290.45 337.45 291.18 320.98 292.15 C 320.42 292.18 319.94 292.01 319.53 291.65 C 319.11 291.28 318.88 290.82 318.85 290.27 C 318.82 289.72 318.98 289.24 319.35 288.82 C 319.72 288.41 320.18 288.19 320.73 288.15 C 337.25 287.18 354.06 286.45 371.15 285.95 C 371.70 285.94 372.17 286.12 372.57 286.50 Z M 824.88 341.75 C 825.40 341.92 825.78 342.26 826.02 342.75 C 826.28 343.24 826.32 343.75 826.15 344.27 C 825.98 344.80 825.64 345.18 825.15 345.42 C 824.65 345.68 824.15 345.72 823.62 345.55 C 820.49 344.52 817.38 343.48 814.27 342.45 L 814.33 342.47 C 813.54 342.23 812.79 341.99 812.08 341.75 C 811.55 341.57 811.17 341.24 810.92 340.75 C 810.67 340.25 810.63 339.75 810.80 339.22 C 810.97 338.70 811.31 338.32 811.80 338.07 C 812.29 337.82 812.80 337.78 813.33 337.95 C 814.01 338.17 814.73 338.40 815.47 338.62 L 815.52 338.65 C 818.62 339.68 821.74 340.72 824.88 341.75 Z M 592.08 347.25 C 592.46 346.86 592.93 346.66 593.47 346.65 C 594.02 346.64 594.50 346.84 594.90 347.22 L 598.65 350.87 C 599.04 351.26 599.24 351.73 599.25 352.27 C 599.25 352.82 599.06 353.30 598.67 353.70 C 598.29 354.09 597.82 354.29 597.28 354.30 C 596.73 354.30 596.25 354.11 595.85 353.72 L 592.10 350.07 C 591.71 349.69 591.51 349.22 591.50 348.68 C 591.50 348.12 591.69 347.65 592.08 347.25 Z M 584.05 345.85 C 584.61 345.85 585.08 346.04 585.48 346.43 C 585.86 346.82 586.05 347.29 586.05 347.85 C 586.05 348.41 585.86 348.88 585.48 349.28 L 581.67 353.03 C 581.28 353.41 580.81 353.60 580.25 353.60 C 579.69 353.60 579.22 353.41 578.83 353.03 C 578.44 352.63 578.25 352.16 578.25 351.60 C 578.25 351.04 578.44 350.57 578.83 350.18 L 582.62 346.43 C 583.02 346.04 583.49 345.85 584.05 345.85 Z M 581.25 333.45 L 584.15 336.40 C 584.53 336.80 584.71 337.27 584.70 337.82 C 584.69 338.37 584.49 338.84 584.10 339.22 C 583.70 339.61 583.23 339.80 582.67 339.80 C 582.12 339.79 581.64 339.59 581.25 339.20 L 578.35 336.25 C 577.97 335.85 577.79 335.38 577.80 334.82 C 577.80 334.27 578.00 333.81 578.40 333.42 C 578.80 333.04 579.27 332.84 579.83 332.85 C 580.38 332.86 580.86 333.06 581.25 333.45 Z M 594.25 334.80 C 594.63 334.41 595.10 334.21 595.65 334.20 C 596.20 334.19 596.67 334.37 597.08 334.75 C 597.48 335.13 597.68 335.60 597.70 336.15 C 597.71 336.71 597.53 337.19 597.15 337.60 L 594.30 340.45 C 593.91 340.84 593.45 341.04 592.90 341.05 C 592.35 341.06 591.87 340.88 591.47 340.50 C 591.07 340.12 590.86 339.65 590.85 339.10 C 590.84 338.54 591.02 338.06 591.40 337.65 L 594.25 334.80 Z M 653.38 337.25 C 653.85 336.96 654.35 336.87 654.88 337.00 C 655.41 337.14 655.82 337.45 656.10 337.93 C 656.39 338.39 656.48 338.89 656.35 339.43 C 656.21 339.96 655.90 340.37 655.42 340.65 L 650.08 343.85 C 649.60 344.14 649.10 344.23 648.58 344.10 C 648.04 343.96 647.63 343.65 647.35 343.18 C 647.06 342.70 646.97 342.20 647.10 341.68 C 647.24 341.14 647.55 340.74 648.02 340.45 L 653.38 337.25 Z M 662.08 337.93 C 662.50 337.56 662.98 337.41 663.52 337.45 C 664.07 337.50 664.52 337.75 664.88 338.18 L 668.33 342.38 C 668.68 342.80 668.84 343.28 668.80 343.82 C 668.75 344.37 668.50 344.82 668.08 345.18 C 667.65 345.54 667.17 345.69 666.62 345.65 C 666.08 345.60 665.63 345.35 665.27 344.93 L 661.83 340.73 C 661.47 340.30 661.31 339.82 661.35 339.28 C 661.40 338.73 661.65 338.28 662.08 337.93 Z M 669.55 327.77 C 669.87 328.22 669.97 328.71 669.88 329.25 C 669.77 329.80 669.49 330.23 669.02 330.55 L 664.83 333.50 C 664.38 333.81 663.88 333.92 663.35 333.82 C 662.80 333.72 662.37 333.44 662.05 332.97 C 661.73 332.53 661.62 332.04 661.72 331.50 C 661.83 330.95 662.12 330.52 662.58 330.20 L 666.77 327.25 C 667.22 326.94 667.72 326.82 668.25 326.92 C 668.80 327.03 669.23 327.31 669.55 327.77 Z M 651.08 324.05 C 651.22 323.52 651.52 323.11 652.00 322.82 C 652.47 322.55 652.97 322.48 653.50 322.62 C 654.03 322.76 654.44 323.06 654.73 323.52 L 657.78 328.62 C 658.05 329.11 658.12 329.62 657.98 330.15 C 657.84 330.68 657.53 331.09 657.05 331.38 C 656.58 331.65 656.08 331.72 655.55 331.57 C 655.02 331.44 654.61 331.14 654.33 330.68 L 651.27 325.57 C 651.00 325.09 650.93 324.58 651.08 324.05 Z M 554.88 290.60 C 555.23 291.02 555.39 291.50 555.35 292.05 C 555.31 292.60 555.07 293.06 554.65 293.43 C 554.23 293.78 553.75 293.94 553.20 293.90 C 522.64 291.57 491.02 290.12 458.33 289.55 C 457.78 289.54 457.31 289.34 456.93 288.95 C 456.54 288.55 456.35 288.08 456.35 287.52 C 456.36 286.98 456.56 286.51 456.95 286.12 C 457.35 285.74 457.82 285.55 458.38 285.55 C 491.15 286.12 522.86 287.57 553.50 289.90 C 554.05 289.94 554.51 290.18 554.88 290.60 Z M 768.00 325.23 C 768.47 324.95 768.97 324.88 769.50 325.03 C 781.50 328.20 793.25 331.61 804.75 335.25 C 805.28 335.42 805.67 335.74 805.92 336.23 C 806.18 336.72 806.22 337.23 806.05 337.75 C 805.89 338.28 805.56 338.67 805.08 338.93 C 804.58 339.18 804.07 339.22 803.55 339.05 C 792.12 335.43 780.43 332.03 768.50 328.88 C 767.97 328.74 767.56 328.43 767.27 327.95 C 767.00 327.47 766.93 326.96 767.08 326.43 C 767.22 325.90 767.52 325.50 768.00 325.23 Z M 756.98 322.38 C 757.26 322.85 757.34 323.36 757.20 323.90 C 757.06 324.43 756.75 324.84 756.28 325.12 C 755.80 325.41 755.29 325.48 754.75 325.35 C 703.91 312.51 648.91 303.09 589.75 297.10 C 589.20 297.04 588.75 296.79 588.40 296.35 C 588.05 295.93 587.90 295.44 587.95 294.90 C 588.01 294.35 588.26 293.90 588.70 293.55 C 589.13 293.20 589.61 293.05 590.15 293.10 C 649.52 299.11 704.72 308.56 755.75 321.45 C 756.28 321.59 756.69 321.90 756.98 322.38 Z M 751.15 279.18 C 751.69 279.26 752.12 279.53 752.45 279.98 C 752.78 280.42 752.91 280.91 752.83 281.45 C 752.75 281.99 752.49 282.43 752.05 282.75 L 747.80 285.85 C 747.35 286.18 746.85 286.31 746.30 286.23 C 745.76 286.14 745.33 285.87 745.00 285.43 C 744.67 284.98 744.54 284.49 744.62 283.95 C 744.70 283.41 744.96 282.98 745.40 282.65 L 749.65 279.55 C 750.10 279.22 750.60 279.10 751.15 279.18 Z M 754.88 281.10 C 755.31 280.75 755.80 280.60 756.35 280.65 C 756.90 280.71 757.35 280.95 757.70 281.38 L 761.00 285.33 C 761.35 285.76 761.50 286.25 761.45 286.80 C 761.40 287.35 761.15 287.80 760.73 288.15 C 760.29 288.50 759.80 288.65 759.25 288.60 C 758.70 288.55 758.25 288.30 757.90 287.88 L 754.60 283.93 C 754.25 283.50 754.10 283.00 754.15 282.45 C 754.21 281.90 754.45 281.45 754.88 281.10 Z M 684.02 264.73 C 684.41 265.12 684.60 265.59 684.60 266.15 C 684.60 266.71 684.41 267.18 684.02 267.58 C 683.63 267.96 683.16 268.15 682.60 268.15 L 673.75 268.15 L 673.75 277.05 C 673.75 277.61 673.56 278.08 673.17 278.48 C 672.78 278.86 672.30 279.05 671.75 279.05 C 671.19 279.05 670.72 278.86 670.32 278.48 C 669.94 278.08 669.75 277.61 669.75 277.05 L 669.75 268.15 L 660.85 268.15 C 660.29 268.15 659.82 267.96 659.42 267.58 C 659.04 267.18 658.85 266.71 658.85 266.15 C 658.85 265.59 659.04 265.12 659.42 264.73 C 659.82 264.34 660.29 264.15 660.85 264.15 L 669.75 264.15 L 669.75 255.25 C 669.75 254.69 669.94 254.22 670.32 253.83 C 670.72 253.44 671.19 253.25 671.75 253.25 C 672.30 253.25 672.78 253.44 673.17 253.83 C 673.56 254.22 673.75 254.69 673.75 255.25 L 673.75 264.15 L 682.60 264.15 C 683.16 264.15 683.63 264.34 684.02 264.73 Z M 757.73 275.98 C 758.02 275.50 758.43 275.19 758.98 275.05 L 762.53 274.10 C 763.05 273.97 763.55 274.04 764.03 274.33 C 764.50 274.61 764.81 275.02 764.95 275.55 C 765.09 276.09 765.01 276.60 764.73 277.08 C 764.43 277.55 764.02 277.86 763.48 278.00 L 759.92 278.95 C 759.40 279.08 758.90 279.01 758.42 278.73 C 757.95 278.44 757.64 278.03 757.50 277.50 C 757.37 276.96 757.44 276.45 757.73 275.98 Z M 753.98 267.77 C 754.08 267.24 754.37 266.81 754.83 266.50 C 755.28 266.18 755.78 266.08 756.33 266.18 C 756.87 266.28 757.29 266.56 757.60 267.03 C 757.92 267.48 758.02 267.98 757.92 268.53 L 756.92 273.88 C 756.82 274.42 756.53 274.84 756.08 275.15 C 755.62 275.47 755.12 275.57 754.58 275.48 C 754.04 275.37 753.61 275.09 753.30 274.62 C 752.99 274.17 752.88 273.67 752.98 273.12 L 753.98 267.77 Z M 745.83 269.98 L 751.67 274.48 C 752.11 274.81 752.36 275.26 752.42 275.80 C 752.50 276.35 752.36 276.84 752.03 277.28 C 751.69 277.71 751.25 277.96 750.70 278.03 C 750.15 278.10 749.66 277.96 749.23 277.63 L 743.38 273.13 C 742.94 272.79 742.69 272.35 742.62 271.80 C 742.55 271.25 742.69 270.76 743.02 270.33 C 743.36 269.89 743.80 269.64 744.35 269.58 C 744.90 269.50 745.39 269.64 745.83 269.98 Z M 736.45 217.82 L 736.47 217.85 C 739.36 220.71 740.80 224.14 740.80 228.15 C 740.80 232.23 739.36 235.70 736.47 238.55 L 736.45 238.57 C 733.59 241.46 730.16 242.90 726.15 242.90 C 722.14 242.91 718.68 241.46 715.75 238.57 C 712.85 235.72 711.40 232.24 711.40 228.15 C 711.40 224.13 712.85 220.68 715.75 217.82 C 718.68 214.93 722.14 213.49 726.15 213.50 C 730.16 213.50 733.59 214.94 736.45 217.82 Z M 733.62 220.65 C 731.55 218.55 729.06 217.50 726.15 217.50 C 723.22 217.51 720.69 218.56 718.55 220.68 C 716.45 222.75 715.40 225.24 715.40 228.15 C 715.40 231.12 716.45 233.65 718.55 235.72 C 720.69 237.84 723.22 238.90 726.15 238.90 C 729.06 238.90 731.55 237.85 733.62 235.75 L 733.65 235.73 C 735.75 233.65 736.80 231.12 736.80 228.15 C 736.80 225.24 735.75 222.75 733.65 220.68 L 733.62 220.65 Z M 685.52 181.47 C 685.91 181.87 686.10 182.34 686.10 182.90 C 686.10 183.46 685.91 183.93 685.52 184.32 C 685.13 184.71 684.66 184.90 684.10 184.90 L 676.20 184.90 L 676.20 192.80 C 676.20 193.36 676.01 193.83 675.62 194.22 C 675.23 194.61 674.76 194.80 674.20 194.80 C 673.64 194.80 673.17 194.61 672.77 194.22 C 672.39 193.83 672.20 193.36 672.20 192.80 L 672.20 184.90 L 664.35 184.90 C 663.79 184.90 663.32 184.71 662.92 184.32 C 662.54 183.93 662.35 183.46 662.35 182.90 C 662.35 182.34 662.54 181.87 662.92 181.47 C 663.32 181.09 663.79 180.90 664.35 180.90 L 672.20 180.90 L 672.20 173.00 C 672.20 172.44 672.39 171.97 672.77 171.57 C 673.17 171.19 673.64 171.00 674.20 171.00 C 674.76 171.00 675.23 171.19 675.62 171.57 C 676.01 171.97 676.20 172.44 676.20 173.00 L 676.20 180.90 L 684.10 180.90 C 684.66 180.90 685.13 181.09 685.52 181.47 Z M 64.60 332.52 C 64.33 333.01 63.93 333.32 63.40 333.47 C 56.49 335.43 49.63 337.51 42.83 339.70 C 42.30 339.87 41.79 339.83 41.30 339.57 C 40.81 339.33 40.47 338.94 40.30 338.43 C 40.13 337.90 40.17 337.39 40.43 336.90 C 40.67 336.41 41.06 336.07 41.58 335.90 C 48.43 333.69 55.34 331.60 62.30 329.63 C 62.83 329.47 63.34 329.53 63.83 329.80 C 64.31 330.07 64.62 330.47 64.78 331.00 C 64.93 331.53 64.87 332.04 64.60 332.52 Z M 193.05 331.95 C 193.32 332.44 193.38 332.95 193.22 333.47 C 193.06 334.00 192.74 334.39 192.25 334.65 L 186.35 337.85 C 185.86 338.12 185.35 338.18 184.83 338.02 C 184.30 337.86 183.91 337.54 183.65 337.05 C 183.38 336.56 183.32 336.05 183.47 335.52 C 183.64 335.00 183.96 334.61 184.45 334.35 L 190.35 331.15 C 190.84 330.88 191.35 330.82 191.88 330.97 C 192.40 331.14 192.79 331.46 193.05 331.95 Z M 31.35 339.15 C 31.87 338.98 32.37 339.02 32.85 339.27 C 33.34 339.52 33.68 339.91 33.85 340.42 C 34.02 340.95 33.98 341.46 33.73 341.95 C 33.47 342.44 33.08 342.78 32.55 342.95 C 29.98 343.77 27.43 344.63 24.93 345.52 C 24.41 345.71 23.90 345.68 23.40 345.45 C 22.90 345.21 22.56 344.84 22.38 344.32 C 22.19 343.81 22.21 343.30 22.45 342.80 C 22.68 342.30 23.06 341.96 23.58 341.77 C 26.13 340.87 28.73 339.99 31.35 339.15 Z M 187.93 317.85 C 188.34 317.48 188.82 317.32 189.38 317.35 C 189.92 317.39 190.38 317.61 190.75 318.03 L 194.45 322.28 C 194.82 322.69 194.98 323.18 194.95 323.73 C 194.91 324.28 194.69 324.73 194.28 325.10 C 193.86 325.47 193.38 325.63 192.82 325.60 C 192.28 325.56 191.82 325.34 191.45 324.93 L 187.75 320.68 C 187.38 320.26 187.22 319.77 187.25 319.23 C 187.28 318.68 187.51 318.22 187.93 317.85 Z M 159.57 268.48 L 159.60 268.48 C 157.92 266.82 155.91 266.00 153.55 266.00 C 151.22 266.00 149.20 266.82 147.50 268.48 L 147.52 268.48 C 147.24 268.76 146.99 269.04 146.77 269.33 C 146.75 269.34 146.74 269.36 146.72 269.38 C 145.57 270.85 145.00 272.54 145.00 274.45 C 145.00 276.83 145.84 278.85 147.52 280.53 L 147.50 280.53 C 149.21 282.18 151.22 283.00 153.55 283.00 C 155.91 283.00 157.92 282.18 159.60 280.53 L 159.58 280.53 C 161.26 278.85 162.10 276.83 162.10 274.45 C 162.10 272.54 161.53 270.85 160.40 269.38 C 160.15 269.07 159.88 268.77 159.57 268.48 Z M 162.43 265.62 C 162.84 266.04 163.21 266.46 163.55 266.88 C 163.57 266.89 163.58 266.91 163.60 266.93 C 165.27 269.12 166.10 271.62 166.10 274.45 C 166.10 277.94 164.88 280.92 162.43 283.38 L 162.40 283.38 C 159.94 285.79 157.00 287.00 153.55 287.00 C 150.14 287.00 147.19 285.79 144.70 283.38 L 144.67 283.38 C 142.22 280.92 141.00 277.94 141.00 274.45 C 141.00 271.62 141.86 269.12 143.57 266.93 L 143.52 266.98 C 143.84 266.52 144.23 266.07 144.67 265.62 L 144.70 265.62 C 147.19 263.21 150.14 262.00 153.55 262.00 C 156.99 262.00 159.94 263.21 162.40 265.62 L 162.43 265.62 Z M 78.22 325.75 C 78.50 325.27 78.90 324.97 79.42 324.82 C 141.00 308.39 208.80 297.06 282.82 290.85 C 283.37 290.81 283.85 290.96 284.27 291.32 C 284.70 291.68 284.95 292.13 285.00 292.68 C 285.04 293.22 284.88 293.70 284.52 294.12 C 284.17 294.56 283.72 294.80 283.17 294.85 C 209.40 301.04 141.83 312.31 80.47 328.68 C 79.94 328.82 79.43 328.75 78.95 328.48 C 78.47 328.20 78.17 327.80 78.03 327.28 C 77.88 326.74 77.95 326.23 78.22 325.75 Z M 80.47 290.48 C 80.87 290.09 81.34 289.90 81.90 289.90 C 82.46 289.90 82.93 290.09 83.33 290.48 L 87.03 294.12 C 87.41 294.52 87.60 294.99 87.60 295.55 C 87.60 296.11 87.41 296.58 87.03 296.98 C 86.63 297.36 86.16 297.55 85.60 297.55 C 85.04 297.55 84.57 297.36 84.17 296.98 L 80.47 293.33 C 80.09 292.93 79.90 292.46 79.90 291.90 C 79.90 291.34 80.09 290.87 80.47 290.48 Z M 86.05 279.40 C 86.06 279.96 85.88 280.44 85.50 280.85 L 82.65 283.70 C 82.27 284.09 81.80 284.29 81.25 284.30 C 80.70 284.31 80.22 284.13 79.83 283.75 C 79.42 283.37 79.21 282.90 79.20 282.35 C 79.19 281.79 79.37 281.31 79.75 280.90 L 82.60 278.05 C 82.98 277.66 83.45 277.46 84.00 277.45 C 84.55 277.44 85.03 277.62 85.42 278.00 C 85.83 278.38 86.04 278.85 86.05 279.40 Z M 72.38 289.10 C 72.93 289.10 73.40 289.29 73.80 289.68 C 74.19 290.06 74.39 290.53 74.40 291.07 C 74.41 291.62 74.21 292.10 73.83 292.50 L 70.08 296.25 C 69.69 296.64 69.22 296.84 68.68 296.85 C 68.12 296.86 67.65 296.66 67.25 296.28 C 66.86 295.89 66.66 295.42 66.65 294.88 C 66.64 294.32 66.84 293.85 67.22 293.45 L 70.97 289.70 C 71.36 289.31 71.83 289.11 72.38 289.10 Z M 68.17 276.10 C 68.73 276.11 69.21 276.31 69.60 276.70 L 72.50 279.65 C 72.88 280.05 73.06 280.52 73.05 281.08 C 73.04 281.62 72.84 282.09 72.45 282.48 C 72.05 282.86 71.58 283.06 71.03 283.05 C 70.47 283.04 69.99 282.84 69.60 282.45 L 66.70 279.50 C 66.32 279.10 66.14 278.63 66.15 278.07 C 66.16 277.52 66.36 277.06 66.75 276.68 C 67.15 276.29 67.62 276.10 68.17 276.10 Z M 115.88 207.03 C 116.27 206.64 116.74 206.45 117.30 206.45 C 117.86 206.45 118.33 206.64 118.72 207.03 C 119.11 207.42 119.30 207.89 119.30 208.45 L 119.30 218.85 L 129.60 218.85 C 130.16 218.84 130.63 219.04 131.03 219.42 C 131.41 219.82 131.60 220.29 131.60 220.85 C 131.60 221.41 131.41 221.88 131.03 222.28 C 130.63 222.66 130.16 222.85 129.60 222.85 L 119.30 222.85 L 119.30 233.20 C 119.30 233.76 119.11 234.23 118.72 234.62 C 118.33 235.01 117.86 235.20 117.30 235.20 C 116.74 235.20 116.27 235.01 115.88 234.62 C 115.49 234.23 115.30 233.76 115.30 233.20 L 115.30 222.85 L 104.95 222.85 C 104.39 222.85 103.92 222.66 103.53 222.28 C 103.14 221.88 102.95 221.41 102.95 220.85 C 102.95 220.29 103.14 219.82 103.53 219.43 C 103.92 219.04 104.39 218.85 104.95 218.85 L 115.30 218.85 L 115.30 208.45 C 115.30 207.90 115.49 207.42 115.88 207.03 Z M 172.28 170.18 C 171.89 169.78 171.70 169.31 171.70 168.75 C 171.70 168.19 171.89 167.72 172.28 167.32 C 172.67 166.94 173.14 166.75 173.70 166.75 L 181.55 166.75 L 181.55 158.85 C 181.55 158.29 181.74 157.82 182.12 157.43 C 182.52 157.04 182.99 156.85 183.55 156.85 C 184.11 156.85 184.58 157.04 184.97 157.43 C 185.36 157.82 185.55 158.29 185.55 158.85 L 185.55 166.75 L 193.45 166.75 C 194.01 166.75 194.48 166.94 194.88 167.32 C 195.26 167.72 195.45 168.19 195.45 168.75 C 195.45 169.31 195.26 169.78 194.88 170.18 C 194.48 170.56 194.01 170.75 193.45 170.75 L 185.55 170.75 L 185.55 178.65 C 185.55 179.21 185.36 179.68 184.97 180.07 C 184.58 180.46 184.11 180.65 183.55 180.65 C 182.99 180.65 182.52 180.46 182.12 180.07 C 181.74 179.68 181.55 179.21 181.55 178.65 L 181.55 170.75 L 173.70 170.75 C 173.15 170.75 172.67 170.56 172.28 170.18 Z M 666.27 72.12 C 665.59 71.66 665.16 71.03 665.00 70.22 C 664.85 69.41 665.01 68.66 665.48 67.97 L 680.12 46.42 C 680.59 45.74 681.22 45.31 682.02 45.15 C 682.84 45.00 683.59 45.16 684.27 45.62 C 684.96 46.09 685.39 46.72 685.55 47.52 C 685.70 48.34 685.54 49.09 685.07 49.77 L 670.42 71.33 C 669.96 72.01 669.33 72.44 668.52 72.60 C 667.71 72.75 666.96 72.59 666.27 72.12 Z M 660.00 77.25 C 660.81 77.09 661.56 77.24 662.25 77.70 C 662.95 78.16 663.38 78.79 663.55 79.60 C 663.71 80.42 663.56 81.17 663.10 81.88 L 659.90 86.62 C 659.44 87.31 658.81 87.74 658.00 87.90 C 657.19 88.06 656.44 87.91 655.75 87.45 C 655.05 86.99 654.62 86.36 654.45 85.55 C 654.29 84.73 654.44 83.98 654.90 83.28 L 658.10 78.53 C 658.56 77.84 659.19 77.41 660.00 77.25 Z M 465.20 36.48 C 465.64 37.19 465.76 37.94 465.57 38.75 L 460.47 60.25 C 460.28 61.05 459.83 61.67 459.12 62.10 C 458.41 62.54 457.65 62.66 456.85 62.48 C 456.05 62.28 455.43 61.83 455.00 61.12 C 454.56 60.41 454.44 59.66 454.62 58.85 L 459.72 37.35 C 459.92 36.55 460.37 35.93 461.07 35.50 C 461.79 35.06 462.54 34.94 463.35 35.12 C 464.15 35.32 464.77 35.77 465.20 36.48 Z M 479.40 73.05 L 499.30 59.95 C 499.99 59.50 500.74 59.35 501.55 59.52 C 502.36 59.69 502.99 60.11 503.45 60.80 C 503.90 61.49 504.05 62.24 503.87 63.05 C 503.71 63.86 503.29 64.49 502.60 64.95 L 482.70 78.05 C 482.01 78.50 481.26 78.64 480.45 78.47 C 479.64 78.31 479.01 77.89 478.55 77.20 C 478.10 76.51 477.95 75.76 478.12 74.95 C 478.29 74.14 478.71 73.51 479.40 73.05 Z M 490.70 37.17 C 491.52 37.08 492.25 37.29 492.90 37.80 C 493.55 38.31 493.93 38.98 494.02 39.80 C 494.12 40.62 493.91 41.35 493.40 42.00 L 473.95 66.95 C 473.44 67.60 472.77 67.97 471.95 68.08 C 471.13 68.17 470.40 67.96 469.75 67.45 C 469.10 66.94 468.72 66.27 468.62 65.45 C 468.53 64.63 468.74 63.90 469.25 63.25 L 488.70 38.30 C 489.21 37.65 489.88 37.27 490.70 37.17 Z M 216.15 57.73 C 216.56 57.00 217.16 56.52 217.95 56.30 C 218.74 56.08 219.50 56.18 220.22 56.60 C 220.95 57.01 221.42 57.60 221.65 58.40 L 222.10 60.20 C 222.31 60.99 222.21 61.75 221.80 62.48 C 221.39 63.20 220.79 63.67 220.00 63.90 C 219.21 64.12 218.45 64.02 217.72 63.60 C 217.00 63.20 216.53 62.59 216.30 61.80 L 215.85 60.00 C 215.64 59.21 215.74 58.45 216.15 57.73 Z M 241.03 20.75 L 241.00 20.75 C 231.30 18.11 220.46 18.39 208.47 21.60 C 196.56 24.78 186.98 29.96 179.75 37.15 L 179.72 37.17 C 173.26 43.77 170.82 50.28 172.40 56.73 C 174.24 63.03 179.60 67.40 188.50 69.85 L 188.48 69.85 C 198.34 72.46 209.25 72.18 221.20 69.00 C 223.68 68.31 228.31 66.63 235.10 63.95 C 235.82 63.67 236.54 63.66 237.25 63.92 L 248.55 68.10 L 246.10 59.10 C 245.95 58.54 245.96 57.98 246.13 57.42 C 246.29 56.88 246.59 56.42 247.03 56.05 C 248.00 55.20 248.94 54.35 249.83 53.50 C 249.84 53.48 249.86 53.47 249.88 53.45 C 256.41 46.84 258.90 40.33 257.35 33.92 C 255.51 27.56 250.07 23.17 241.03 20.75 Z M 242.60 14.95 L 242.58 14.95 C 254.20 18.06 261.06 23.87 263.15 32.38 C 265.53 40.76 262.51 49.20 254.08 57.70 C 254.06 57.71 254.04 57.73 254.03 57.75 C 253.50 58.26 252.95 58.78 252.40 59.30 L 255.90 72.15 C 256.10 72.89 256.02 73.61 255.68 74.30 C 255.33 74.99 254.81 75.47 254.10 75.75 C 253.38 76.03 252.67 76.04 251.95 75.78 L 236.22 69.97 C 229.73 72.52 225.25 74.13 222.80 74.80 L 222.78 74.80 C 209.68 78.28 197.73 78.57 186.93 75.65 L 186.90 75.65 C 175.46 72.50 168.69 66.71 166.60 58.27 C 164.18 49.86 167.13 41.42 175.45 32.95 L 175.47 32.92 C 183.37 24.99 193.86 19.28 206.92 15.80 C 220.07 12.28 231.96 11.99 242.60 14.95 Z M 218.78 28.35 C 218.82 28.37 218.86 28.40 218.90 28.43 C 221.70 29.97 223.50 32.27 224.30 35.33 L 224.30 35.30 C 225.15 38.39 224.74 41.32 223.07 44.10 C 223.05 44.14 223.03 44.18 223.00 44.23 C 222.04 45.92 220.78 47.23 219.20 48.17 L 219.22 48.15 C 219.12 48.21 219.02 48.27 218.92 48.33 L 219.75 51.48 C 219.96 52.28 219.85 53.03 219.42 53.75 C 219.00 54.47 218.40 54.94 217.60 55.15 C 216.81 55.36 216.06 55.25 215.35 54.83 C 214.63 54.41 214.16 53.81 213.95 53.02 L 212.45 47.33 C 212.31 46.80 212.31 46.28 212.45 45.75 C 212.60 45.23 212.88 44.78 213.27 44.40 C 213.67 44.02 214.12 43.76 214.65 43.62 C 215.16 43.50 215.64 43.31 216.07 43.05 L 216.10 43.02 C 216.81 42.59 217.39 41.98 217.82 41.20 C 217.85 41.16 217.87 41.12 217.90 41.08 C 218.70 39.76 218.90 38.37 218.50 36.90 L 218.50 36.88 C 218.11 35.44 217.26 34.37 215.92 33.65 C 215.89 33.62 215.84 33.60 215.80 33.58 C 214.53 32.81 213.17 32.62 211.72 33.00 C 210.28 33.38 209.16 34.22 208.35 35.50 C 207.68 36.77 207.52 38.14 207.85 39.60 C 208.03 40.09 208.16 40.55 208.25 41.00 C 208.41 41.81 208.26 42.56 207.80 43.25 C 207.34 43.95 206.71 44.38 205.90 44.55 C 205.09 44.71 204.34 44.56 203.65 44.10 C 202.95 43.64 202.52 43.01 202.35 42.20 C 202.31 42.00 202.25 41.79 202.17 41.58 C 202.15 41.48 202.12 41.39 202.10 41.30 C 201.29 38.23 201.61 35.37 203.05 32.70 C 203.07 32.66 203.10 32.62 203.12 32.58 C 204.78 29.80 207.13 28.00 210.17 27.20 C 213.22 26.40 216.08 26.78 218.78 28.35 Z" fill="#aaaaaa" fill-rule="nonzero" group-id="1" node-id="24" stroke="none" target-height="345.38" target-width="804.13" target-x="22.19" target-y="11.99"></path></g><path d="M 259.77 251.82 L 277.55 250.60 L 274.90 213.17 L 259.77 251.82 Z M 331.70 268.62 C 332.25 268.00 332.93 267.66 333.75 267.60 C 334.57 267.55 335.30 267.80 335.93 268.35 C 336.55 268.90 336.89 269.58 336.95 270.40 L 337.70 281.10 C 337.75 281.92 337.50 282.65 336.95 283.28 C 336.40 283.90 335.72 284.24 334.90 284.30 L 321.90 285.23 L 322.25 290.53 C 322.30 291.35 322.05 292.08 321.50 292.70 C 320.94 293.32 320.25 293.65 319.43 293.70 C 318.60 293.75 317.87 293.50 317.25 292.95 C 316.63 292.39 316.30 291.70 316.25 290.88 L 315.70 282.63 C 315.65 281.81 315.90 281.09 316.45 280.48 C 317.00 279.85 317.68 279.51 318.50 279.45 L 331.50 278.53 L 330.95 270.80 C 330.90 269.97 331.15 269.25 331.70 268.62 Z M 279.15 197.62 C 279.63 198.14 279.90 198.75 279.95 199.45 L 283.75 253.20 C 283.81 254.01 283.57 254.73 283.02 255.35 C 282.47 255.98 281.78 256.33 280.95 256.40 L 255.45 258.15 C 254.76 258.20 254.13 258.02 253.55 257.62 C 252.97 257.23 252.58 256.69 252.38 256.02 C 252.17 255.36 252.19 254.70 252.45 254.05 L 274.15 198.55 C 274.41 197.90 274.84 197.40 275.45 197.05 C 276.06 196.69 276.71 196.57 277.40 196.67 C 278.09 196.78 278.67 197.10 279.15 197.62 Z M 462.55 264.10 C 463.12 263.50 463.82 263.20 464.65 263.20 C 465.48 263.20 466.20 263.50 466.80 264.10 C 467.37 264.67 467.65 265.37 467.65 266.20 C 467.65 267.37 467.62 268.53 467.55 269.70 L 467.55 269.75 C 466.92 277.32 464.13 284.20 459.20 290.40 C 458.70 291.03 458.03 291.40 457.20 291.50 C 456.37 291.57 455.63 291.35 455.00 290.85 C 454.33 290.35 453.97 289.69 453.90 288.85 C 453.80 288.02 454.00 287.29 454.50 286.65 C 458.63 281.42 460.98 275.62 461.55 269.25 C 461.62 268.25 461.65 267.24 461.65 266.20 C 461.65 265.37 461.95 264.67 462.55 264.10 Z M 424.45 144.60 C 424.45 142.13 423.52 140.02 421.65 138.25 C 419.75 136.45 417.45 135.55 414.75 135.55 L 414.70 135.55 C 412.00 135.55 409.70 136.45 407.80 138.25 L 407.75 138.25 C 405.92 140.02 405.00 142.13 405.00 144.60 L 405.00 261.25 C 405.00 263.72 405.92 265.83 407.75 267.60 L 407.80 267.60 C 409.70 269.40 412.00 270.30 414.70 270.30 L 414.75 270.30 C 417.45 270.30 419.75 269.40 421.65 267.60 L 421.65 267.55 C 423.52 265.82 424.45 263.72 424.45 261.25 L 424.45 144.60 Z M 425.75 133.90 L 425.80 133.90 C 428.90 136.87 430.45 140.43 430.45 144.60 L 430.45 261.25 C 430.45 265.45 428.90 269.02 425.80 271.95 L 425.75 271.95 C 422.72 274.85 419.05 276.30 414.75 276.30 L 414.70 276.30 C 410.40 276.30 406.72 274.85 403.65 271.95 C 400.55 269.02 399.00 265.45 399.00 261.25 L 399.00 144.60 C 399.00 140.43 400.55 136.87 403.65 133.90 L 403.65 133.85 C 406.72 130.98 410.40 129.55 414.70 129.55 L 414.75 129.55 C 419.05 129.55 422.72 131.00 425.75 133.90 Z M 586.80 295.62 L 587.40 287.32 C 587.46 286.50 587.81 285.82 588.45 285.27 C 589.08 284.73 589.80 284.49 590.63 284.55 L 603.60 285.47 L 604.15 277.77 C 604.22 276.95 604.57 276.26 605.20 275.72 C 605.83 275.18 606.55 274.94 607.38 275.00 C 608.20 275.06 608.88 275.42 609.43 276.05 C 609.97 276.68 610.21 277.40 610.15 278.22 L 609.40 288.92 C 609.34 289.75 608.99 290.43 608.35 290.97 C 607.72 291.52 607.00 291.76 606.18 291.70 L 593.18 290.77 L 592.80 296.07 C 592.74 296.90 592.38 297.58 591.75 298.12 C 591.12 298.67 590.40 298.91 589.58 298.85 C 588.75 298.78 588.07 298.43 587.53 297.80 C 586.98 297.17 586.74 296.45 586.80 295.62 Z M 536.30 249.07 L 554.05 250.32 L 556.62 212.93 L 536.30 249.07 Z M 557.92 198.32 C 558.27 197.72 558.77 197.29 559.42 197.03 C 560.08 196.76 560.74 196.72 561.40 196.92 C 562.08 197.13 562.62 197.52 563.03 198.10 C 563.43 198.67 563.60 199.31 563.55 200.00 L 559.85 253.75 C 559.80 254.57 559.45 255.25 558.83 255.80 C 558.20 256.35 557.47 256.60 556.65 256.55 L 531.15 254.75 C 530.45 254.69 529.84 254.43 529.33 253.95 C 528.82 253.48 528.51 252.91 528.40 252.22 C 528.28 251.53 528.39 250.89 528.73 250.27 L 557.92 198.32 Z M 565.17 113.03 C 565.19 113.01 565.21 112.99 565.23 112.97 C 570.27 104.19 578.39 101.08 589.58 103.62 C 589.62 103.64 589.67 103.66 589.73 103.67 C 600.63 106.78 605.68 113.21 604.85 122.95 L 604.85 122.97 L 595.80 253.25 L 608.80 254.15 C 609.63 254.21 610.33 254.56 610.88 255.20 C 611.42 255.82 611.66 256.55 611.60 257.38 L 611.10 263.98 C 611.03 264.80 610.68 265.48 610.05 266.03 C 609.42 266.57 608.70 266.81 607.88 266.75 C 607.05 266.69 606.37 266.33 605.83 265.70 C 605.28 265.07 605.04 264.35 605.10 263.53 L 605.37 259.95 L 592.40 259.05 C 591.58 259.00 590.89 258.65 590.35 258.03 C 589.80 257.40 589.55 256.68 589.60 255.85 L 598.85 122.55 L 598.85 122.53 C 599.22 115.95 595.62 111.58 588.07 109.43 L 588.22 109.48 C 580.10 107.63 574.17 109.80 570.42 115.98 L 499.35 242.53 C 499.34 242.54 499.33 242.56 499.32 242.58 C 498.55 244.03 498.11 245.54 498.00 247.10 L 496.80 265.15 C 496.80 265.17 496.80 265.19 496.80 265.23 C 496.67 266.64 496.80 267.96 497.17 269.20 C 497.17 269.23 497.17 269.25 497.17 269.28 C 497.73 271.12 498.77 272.84 500.30 274.43 L 500.20 274.30 C 503.26 277.14 506.78 278.69 510.75 278.95 L 510.77 278.95 L 554.87 282.10 C 555.70 282.16 556.38 282.51 556.92 283.15 C 557.47 283.78 557.71 284.50 557.65 285.32 L 556.17 305.68 L 585.87 307.78 L 586.05 305.13 C 586.12 304.30 586.47 303.62 587.10 303.08 C 587.73 302.53 588.45 302.29 589.27 302.35 C 590.10 302.42 590.78 302.77 591.33 303.40 C 591.87 304.03 592.11 304.75 592.05 305.58 L 591.70 311.23 C 591.63 312.05 591.28 312.73 590.65 313.28 C 590.02 313.82 589.30 314.06 588.47 314.00 L 552.72 311.45 C 551.90 311.38 551.22 311.03 550.67 310.40 C 550.13 309.77 549.89 309.05 549.95 308.23 L 551.42 287.88 L 510.32 284.95 C 504.97 284.61 500.23 282.52 496.10 278.70 C 496.07 278.66 496.03 278.62 496.00 278.57 C 493.73 276.23 492.20 273.68 491.42 270.93 L 491.42 271.00 C 490.80 269.04 490.59 266.93 490.80 264.68 L 492.00 246.70 C 492.16 244.28 492.84 241.94 494.05 239.68 L 565.17 113.03 Z M 377.60 108.65 C 387.97 99.95 400.35 95.60 414.75 95.60 C 429.15 95.60 441.52 99.95 451.85 108.65 C 462.42 117.48 467.68 128.00 467.65 140.20 L 467.65 255.25 C 467.65 256.08 467.37 256.80 466.80 257.40 C 466.20 257.97 465.48 258.25 464.65 258.25 C 463.82 258.25 463.12 257.97 462.55 257.40 C 461.95 256.80 461.65 256.08 461.65 255.25 L 461.65 140.20 C 461.62 129.80 457.07 120.82 448.00 113.25 C 438.77 105.48 427.69 101.60 414.75 101.60 C 401.82 101.60 390.72 105.48 381.45 113.25 C 372.42 120.82 367.88 129.80 367.85 140.20 L 367.85 266.20 C 367.85 267.20 367.90 268.22 368.00 269.25 C 368.53 275.62 370.87 281.42 375.00 286.65 C 376.82 288.90 378.95 291.07 381.40 293.15 C 382.43 293.98 383.50 294.77 384.60 295.50 L 384.65 295.55 C 393.22 301.35 403.25 304.23 414.75 304.20 C 426.25 304.20 436.30 301.32 444.90 295.55 C 445.57 295.05 446.32 294.88 447.15 295.05 C 447.95 295.22 448.58 295.65 449.05 296.35 C 449.52 297.02 449.67 297.77 449.50 298.60 C 449.33 299.40 448.92 300.03 448.25 300.50 C 438.68 306.97 427.52 310.20 414.75 310.20 C 401.98 310.17 390.83 306.93 381.30 300.50 C 380.07 299.70 378.85 298.82 377.65 297.85 C 377.62 297.82 377.58 297.80 377.55 297.80 C 374.75 295.43 372.33 292.97 370.30 290.40 C 365.37 284.20 362.60 277.32 362.00 269.75 C 361.90 268.58 361.85 267.40 361.85 266.20 L 361.85 140.20 C 361.82 128.00 367.07 117.48 377.60 108.65 Z M 269.45 113.10 L 269.47 113.08 C 273.24 103.63 280.84 99.40 292.30 100.40 C 292.35 100.41 292.40 100.42 292.45 100.42 C 303.68 101.97 309.58 107.64 310.15 117.45 L 319.30 247.68 L 332.27 246.75 C 333.11 246.69 333.84 246.94 334.47 247.50 C 335.11 248.05 335.45 248.74 335.50 249.57 L 335.95 256.22 C 336.00 257.05 335.75 257.78 335.20 258.40 C 334.64 259.02 333.95 259.35 333.12 259.40 C 332.30 259.45 331.57 259.20 330.95 258.65 C 330.33 258.09 330.00 257.40 329.95 256.57 L 329.70 252.97 L 316.72 253.90 C 315.90 253.96 315.17 253.72 314.55 253.17 C 313.91 252.62 313.56 251.93 313.50 251.10 L 304.15 117.85 C 303.58 111.30 299.47 107.48 291.80 106.40 C 283.45 105.66 277.86 108.64 275.02 115.32 L 275.05 115.30 L 222.25 250.55 L 222.27 250.45 C 221.72 252.04 221.49 253.61 221.59 255.17 L 222.90 273.27 L 222.90 273.32 C 222.97 274.74 223.28 276.05 223.82 277.25 C 224.65 279.00 225.93 280.57 227.67 281.95 C 231.07 284.25 234.75 285.27 238.70 285.00 L 282.75 281.95 C 283.57 281.90 284.30 282.15 284.92 282.70 C 285.55 283.25 285.89 283.93 285.95 284.75 L 287.35 305.15 L 317.07 303.05 L 316.90 300.42 C 316.84 299.60 317.08 298.88 317.62 298.25 C 318.16 297.62 318.85 297.26 319.67 297.20 C 320.49 297.14 321.22 297.38 321.85 297.92 C 322.48 298.47 322.83 299.15 322.90 299.97 L 323.30 305.62 C 323.36 306.45 323.12 307.19 322.57 307.82 C 322.02 308.45 321.33 308.79 320.50 308.85 L 284.75 311.35 C 283.92 311.40 283.19 311.15 282.57 310.60 C 281.94 310.05 281.60 309.37 281.55 308.55 L 280.15 288.15 L 239.10 291.00 C 233.72 291.39 228.72 289.98 224.10 286.77 C 224.04 286.73 223.99 286.69 223.93 286.65 C 221.40 284.63 219.55 282.33 218.38 279.75 C 217.52 277.89 217.03 275.86 216.90 273.68 L 215.60 255.62 L 215.60 255.60 C 215.44 253.24 215.78 250.85 216.62 248.45 C 216.63 248.42 216.64 248.39 216.65 248.35 L 269.45 113.10 Z" fill="url(#SVGID_1_)" fill-rule="evenodd" group-id="2" node-id="29" stroke="none" target-height="218.45999" target-width="396.21997" target-x="215.44" target-y="95.6"></path></svg>