<?xml version="1.0" standalone="no"?>
<!DOCTYPE svg PUBLIC "-//W3C//DTD SVG 1.1//EN" "http://www.w3.org/Graphics/SVG/1.1/DTD/svg11.dtd"><svg height="369"
  node-id="1" sillyvg="true" template-height="369" template-width="850" version="1.1" viewBox="0 0 850 369" width="850"
  xmlns="http://www.w3.org/2000/svg" xmlns:xlink="http://www.w3.org/1999/xlink">
  <defs node-id="11">
    <linearGradient gradientUnits="userSpaceOnUse" id="SVGID_1_" node-id="6" spreadMethod="pad" x1="416.9009"
      x2="416.9009" y1="316.1426" y2="95.6006">
      <stop offset="0" stop-color="#777777"></stop>
      <stop offset="1" stop-color="#cccccc"></stop>
    </linearGradient>
  </defs>
  <g node-id="31">
    <path
      d="M 812.45 338.07 C 812.94 337.82 813.45 337.78 813.97 337.95 C 814.66 338.18 815.38 338.40 816.12 338.62 L 816.17 338.65 C 819.27 339.68 822.39 340.72 825.52 341.75 C 826.05 341.92 826.43 342.26 826.67 342.75 C 826.93 343.24 826.97 343.75 826.80 344.27 C 826.62 344.80 826.29 345.18 825.80 345.42 C 825.30 345.68 824.79 345.72 824.27 345.55 C 821.14 344.52 818.02 343.48 814.92 342.45 L 814.97 342.47 C 814.19 342.23 813.44 341.99 812.72 341.75 C 812.20 341.57 811.82 341.24 811.58 340.75 C 811.32 340.25 811.28 339.75 811.45 339.22 C 811.62 338.70 811.96 338.32 812.45 338.07 Z M 665.52 338.18 L 668.97 342.38 C 669.33 342.80 669.49 343.28 669.45 343.82 C 669.39 344.37 669.15 344.82 668.72 345.18 C 668.30 345.54 667.82 345.69 667.27 345.65 C 666.73 345.60 666.28 345.35 665.92 344.93 L 662.47 340.73 C 662.12 340.30 661.96 339.82 662.00 339.28 C 662.05 338.73 662.29 338.28 662.72 337.93 C 663.15 337.56 663.63 337.41 664.17 337.45 C 664.72 337.50 665.17 337.75 665.52 338.18 Z M 664.00 333.82 C 663.45 333.72 663.02 333.44 662.70 332.97 C 662.38 332.53 662.28 332.04 662.38 331.50 C 662.48 330.95 662.76 330.52 663.23 330.20 L 667.42 327.25 C 667.87 326.94 668.37 326.82 668.90 326.92 C 669.45 327.03 669.88 327.31 670.20 327.77 C 670.52 328.22 670.62 328.71 670.53 329.25 C 670.42 329.80 670.13 330.23 669.67 330.55 L 665.48 333.50 C 665.02 333.81 664.53 333.92 664.00 333.82 Z M 651.73 324.05 C 651.87 323.52 652.17 323.11 652.65 322.82 C 653.12 322.55 653.62 322.48 654.15 322.62 C 654.68 322.76 655.09 323.06 655.38 323.52 L 658.43 328.62 C 658.70 329.11 658.77 329.62 658.63 330.15 C 658.49 330.68 658.18 331.09 657.70 331.38 C 657.23 331.65 656.73 331.72 656.20 331.57 C 655.67 331.44 655.26 331.14 654.98 330.68 L 651.92 325.57 C 651.65 325.09 651.58 324.58 651.73 324.05 Z M 649.23 344.10 C 648.69 343.96 648.29 343.65 648.00 343.18 C 647.71 342.70 647.62 342.20 647.75 341.68 C 647.89 341.14 648.20 340.74 648.67 340.45 L 654.03 337.25 C 654.50 336.96 655.00 336.87 655.53 337.00 C 656.06 337.14 656.47 337.45 656.75 337.93 C 657.04 338.39 657.13 338.89 657.00 339.43 C 656.86 339.96 656.55 340.37 656.08 340.65 L 650.73 343.85 C 650.25 344.14 649.75 344.23 649.23 344.10 Z M 767.92 327.95 C 767.65 327.47 767.58 326.96 767.73 326.43 C 767.87 325.90 768.17 325.50 768.65 325.23 C 769.12 324.95 769.62 324.88 770.15 325.03 C 782.15 328.20 793.90 331.61 805.40 335.25 C 805.93 335.42 806.32 335.74 806.58 336.23 C 806.83 336.72 806.87 337.23 806.70 337.75 C 806.54 338.28 806.21 338.67 805.73 338.93 C 805.23 339.18 804.73 339.22 804.20 339.05 C 792.77 335.43 781.08 332.03 769.15 328.88 C 768.61 328.73 768.21 328.43 767.92 327.95 Z M 750.30 279.55 C 750.75 279.22 751.25 279.10 751.80 279.18 C 752.34 279.26 752.77 279.53 753.10 279.98 C 753.43 280.42 753.56 280.91 753.48 281.45 C 753.40 281.99 753.14 282.43 752.70 282.75 L 748.45 285.85 C 748.00 286.18 747.50 286.31 746.95 286.23 C 746.41 286.14 745.98 285.87 745.65 285.43 C 745.32 284.98 745.20 284.49 745.28 283.95 C 745.35 283.41 745.61 282.98 746.05 282.65 L 750.30 279.55 Z M 743.67 270.32 C 744.01 269.89 744.46 269.64 745.00 269.57 C 745.55 269.50 746.04 269.64 746.48 269.97 L 752.33 274.47 C 752.76 274.81 753.01 275.25 753.08 275.80 C 753.15 276.35 753.01 276.84 752.68 277.27 C 752.34 277.71 751.90 277.96 751.35 278.02 C 750.80 278.09 750.31 277.96 749.88 277.62 L 744.03 273.12 C 743.59 272.79 743.34 272.34 743.28 271.80 C 743.20 271.25 743.34 270.76 743.67 270.32 Z M 755.52 281.10 C 755.96 280.75 756.45 280.60 757.00 280.65 C 757.55 280.71 758.00 280.95 758.35 281.38 L 761.65 285.33 C 762.00 285.76 762.15 286.25 762.10 286.80 C 762.04 287.35 761.80 287.80 761.38 288.15 C 760.94 288.50 760.45 288.65 759.90 288.60 C 759.35 288.55 758.90 288.30 758.55 287.88 L 755.25 283.93 C 754.90 283.50 754.75 283.00 754.80 282.45 C 754.85 281.90 755.10 281.45 755.52 281.10 Z M 763.17 274.10 C 763.70 273.97 764.20 274.04 764.67 274.33 C 765.15 274.61 765.46 275.02 765.60 275.55 C 765.74 276.09 765.66 276.60 765.38 277.08 C 765.08 277.55 764.67 277.86 764.12 278.00 L 760.58 278.95 C 760.05 279.08 759.55 279.01 759.08 278.73 C 758.60 278.44 758.29 278.03 758.15 277.50 C 758.01 276.96 758.09 276.45 758.38 275.98 C 758.67 275.50 759.08 275.19 759.62 275.05 L 763.17 274.10 Z M 758.25 266.93 C 758.57 267.38 758.67 267.88 758.58 268.43 L 757.58 273.88 C 757.47 274.41 757.18 274.84 756.72 275.15 C 756.28 275.46 755.78 275.57 755.25 275.47 C 754.70 275.37 754.27 275.08 753.95 274.62 C 753.63 274.17 753.52 273.67 753.62 273.12 L 754.62 267.67 C 754.73 267.14 755.01 266.71 755.47 266.40 C 755.92 266.08 756.41 265.98 756.95 266.07 C 757.50 266.18 757.93 266.46 758.25 266.93 Z M 512.08 287.85 C 512.45 288.26 512.62 288.75 512.60 289.30 C 512.58 289.85 512.36 290.31 511.95 290.68 C 511.54 291.05 511.05 291.22 510.50 291.20 C 493.68 290.40 476.57 289.83 459.15 289.50 C 458.60 289.49 458.13 289.28 457.75 288.88 C 457.37 288.48 457.19 288.00 457.20 287.45 C 457.21 286.90 457.42 286.43 457.82 286.05 C 458.22 285.67 458.70 285.49 459.25 285.50 C 476.70 285.83 493.85 286.40 510.70 287.20 C 511.25 287.23 511.70 287.44 512.08 287.85 Z M 592.75 350.07 C 592.36 349.69 592.16 349.22 592.15 348.68 C 592.14 348.12 592.34 347.65 592.72 347.25 C 593.11 346.86 593.58 346.66 594.12 346.65 C 594.67 346.64 595.15 346.84 595.55 347.22 L 599.30 350.87 C 599.69 351.26 599.89 351.73 599.90 352.27 C 599.90 352.82 599.71 353.30 599.33 353.70 C 598.94 354.09 598.47 354.29 597.92 354.30 C 597.38 354.30 596.90 354.11 596.50 353.72 L 592.75 350.07 Z M 584.70 345.85 C 585.26 345.85 585.73 346.04 586.12 346.43 C 586.51 346.82 586.70 347.29 586.70 347.85 C 586.70 348.41 586.51 348.88 586.12 349.28 L 582.33 353.03 C 581.93 353.41 581.46 353.60 580.90 353.60 C 580.34 353.60 579.87 353.41 579.47 353.03 C 579.09 352.63 578.90 352.16 578.90 351.60 C 578.90 351.04 579.09 350.57 579.47 350.18 L 583.27 346.43 C 583.67 346.04 584.14 345.85 584.70 345.85 Z M 578.45 334.82 C 578.46 334.27 578.66 333.81 579.05 333.43 C 579.45 333.04 579.92 332.85 580.48 332.85 C 581.03 332.86 581.51 333.06 581.90 333.45 L 584.80 336.40 C 585.18 336.80 585.36 337.27 585.35 337.83 C 585.34 338.38 585.14 338.84 584.75 339.23 C 584.35 339.61 583.88 339.81 583.33 339.80 C 582.77 339.79 582.29 339.59 581.90 339.20 L 579.00 336.25 C 578.62 335.85 578.44 335.38 578.45 334.82 Z M 596.30 334.20 C 596.85 334.19 597.33 334.37 597.73 334.75 C 598.13 335.13 598.34 335.60 598.35 336.15 C 598.36 336.71 598.18 337.19 597.80 337.60 L 594.95 340.45 C 594.57 340.84 594.10 341.04 593.55 341.05 C 593.00 341.06 592.52 340.88 592.12 340.50 C 591.72 340.12 591.51 339.65 591.50 339.10 C 591.49 338.54 591.67 338.06 592.05 337.65 L 594.90 334.80 C 595.28 334.41 595.75 334.21 596.30 334.20 Z M 596.35 297.15 C 596.00 296.72 595.86 296.22 595.92 295.67 C 595.98 295.13 596.22 294.69 596.65 294.35 C 597.08 294.00 597.56 293.85 598.10 293.90 C 654.71 299.91 707.47 309.09 756.40 321.45 C 756.93 321.59 757.34 321.90 757.63 322.38 C 757.91 322.85 757.99 323.36 757.85 323.90 C 757.71 324.43 757.40 324.84 756.93 325.12 C 756.45 325.41 755.94 325.48 755.40 325.35 C 706.66 313.04 654.09 303.89 597.70 297.90 C 597.15 297.83 596.70 297.58 596.35 297.15 Z M 726.80 217.50 C 723.87 217.51 721.34 218.56 719.20 220.68 C 717.10 222.75 716.05 225.24 716.05 228.15 C 716.05 231.12 717.10 233.65 719.20 235.72 C 721.34 237.84 723.87 238.90 726.80 238.90 C 729.71 238.90 732.20 237.85 734.28 235.75 L 734.30 235.73 C 736.40 233.65 737.45 231.12 737.45 228.15 C 737.45 225.24 736.40 222.75 734.30 220.68 L 734.28 220.65 C 732.20 218.55 729.71 217.50 726.80 217.50 Z M 716.40 217.82 C 719.33 214.94 722.79 213.49 726.80 213.50 C 730.81 213.50 734.24 214.94 737.10 217.82 L 737.12 217.85 C 740.01 220.71 741.45 224.14 741.45 228.15 C 741.45 232.23 740.00 235.70 737.12 238.55 L 737.10 238.57 C 734.24 241.46 730.81 242.90 726.80 242.90 C 722.79 242.91 719.33 241.46 716.40 238.57 C 713.50 235.72 712.05 232.24 712.05 228.15 C 712.05 224.13 713.50 220.69 716.40 217.82 Z M 670.98 253.82 C 671.37 253.44 671.84 253.25 672.40 253.25 C 672.96 253.25 673.43 253.44 673.83 253.82 C 674.21 254.22 674.40 254.69 674.40 255.25 L 674.40 264.15 L 683.25 264.15 C 683.81 264.15 684.28 264.34 684.68 264.72 C 685.06 265.12 685.25 265.59 685.25 266.15 C 685.25 266.71 685.06 267.18 684.68 267.57 C 684.28 267.96 683.81 268.15 683.25 268.15 L 674.40 268.15 L 674.40 277.05 C 674.40 277.61 674.21 278.08 673.83 278.47 C 673.43 278.86 672.96 279.05 672.40 279.05 C 671.84 279.05 671.37 278.86 670.98 278.47 C 670.59 278.08 670.40 277.61 670.40 277.05 L 670.40 268.15 L 661.50 268.15 C 660.95 268.15 660.47 267.96 660.08 267.57 C 659.69 267.18 659.50 266.71 659.50 266.15 C 659.50 265.59 659.69 265.12 660.08 264.72 C 660.47 264.34 660.95 264.15 661.50 264.15 L 670.40 264.15 L 670.40 255.25 C 670.40 254.69 670.59 254.22 670.98 253.82 Z M 674.85 171.00 C 675.41 171.00 675.88 171.19 676.28 171.57 C 676.66 171.97 676.85 172.44 676.85 173.00 L 676.85 180.90 L 684.75 180.90 C 685.31 180.90 685.78 181.09 686.17 181.47 C 686.56 181.87 686.75 182.34 686.75 182.90 C 686.75 183.46 686.56 183.93 686.17 184.32 C 685.78 184.71 685.31 184.90 684.75 184.90 L 676.85 184.90 L 676.85 192.80 C 676.85 193.36 676.66 193.83 676.28 194.22 C 675.88 194.61 675.41 194.80 674.85 194.80 C 674.29 194.80 673.82 194.61 673.42 194.22 C 673.04 193.83 672.85 193.36 672.85 192.80 L 672.85 184.90 L 665.00 184.90 C 664.44 184.90 663.97 184.71 663.58 184.32 C 663.19 183.93 663.00 183.46 663.00 182.90 C 663.00 182.34 663.19 181.87 663.58 181.47 C 663.97 181.09 664.44 180.90 665.00 180.90 L 672.85 180.90 L 672.85 173.00 C 672.85 172.44 673.04 171.97 673.42 171.57 C 673.82 171.19 674.29 171.00 674.85 171.00 Z M 663.75 81.88 L 660.55 86.62 C 660.09 87.31 659.46 87.74 658.65 87.90 C 657.84 88.06 657.09 87.91 656.40 87.45 C 655.70 86.99 655.27 86.36 655.10 85.55 C 654.94 84.73 655.09 83.98 655.55 83.28 L 658.75 78.53 C 659.21 77.84 659.84 77.41 660.65 77.25 C 661.46 77.09 662.21 77.24 662.90 77.70 C 663.60 78.16 664.03 78.79 664.20 79.60 C 664.36 80.42 664.21 81.17 663.75 81.88 Z M 682.67 45.15 C 683.49 45.00 684.24 45.16 684.92 45.62 C 685.61 46.09 686.04 46.72 686.20 47.52 C 686.35 48.34 686.19 49.09 685.72 49.77 L 671.08 71.33 C 670.61 72.01 669.98 72.44 669.17 72.60 C 668.36 72.75 667.61 72.59 666.92 72.12 C 666.24 71.66 665.81 71.03 665.65 70.22 C 665.50 69.41 665.66 68.66 666.13 67.97 L 680.78 46.42 C 681.24 45.74 681.87 45.31 682.67 45.15 Z M 502.20 59.52 C 503.01 59.69 503.64 60.11 504.10 60.80 C 504.55 61.49 504.69 62.24 504.52 63.05 C 504.36 63.86 503.94 64.49 503.25 64.95 L 483.35 78.05 C 482.66 78.50 481.91 78.64 481.10 78.47 C 480.29 78.31 479.66 77.89 479.20 77.20 C 478.75 76.51 478.61 75.76 478.78 74.95 C 478.94 74.14 479.36 73.51 480.05 73.05 L 499.95 59.95 C 500.64 59.50 501.39 59.35 502.20 59.52 Z M 489.35 38.30 C 489.87 37.65 490.53 37.27 491.35 37.17 C 492.17 37.08 492.90 37.29 493.55 37.80 C 494.20 38.31 494.58 38.98 494.68 39.80 C 494.77 40.62 494.56 41.35 494.05 42.00 L 474.60 66.95 C 474.09 67.60 473.42 67.97 472.60 68.08 C 471.78 68.17 471.05 67.96 470.40 67.45 C 469.75 66.94 469.37 66.27 469.28 65.45 C 469.18 64.63 469.39 63.90 469.90 63.25 L 489.35 38.30 Z M 464.00 35.12 C 464.80 35.32 465.42 35.77 465.85 36.48 C 466.29 37.19 466.41 37.94 466.23 38.75 L 461.12 60.25 C 460.93 61.05 460.48 61.67 459.77 62.10 C 459.06 62.54 458.31 62.66 457.50 62.48 C 456.70 62.28 456.08 61.83 455.65 61.12 C 455.21 60.41 455.09 59.66 455.27 58.85 L 460.38 37.35 C 460.57 36.55 461.02 35.93 461.73 35.50 C 462.44 35.06 463.19 34.94 464.00 35.12 Z M 333.62 346.12 C 334.13 346.36 334.48 346.73 334.68 347.25 L 337.48 354.60 C 337.67 355.12 337.65 355.62 337.43 356.12 C 337.19 356.63 336.82 356.98 336.30 357.18 C 335.79 357.37 335.28 357.35 334.77 357.12 C 334.27 356.89 333.92 356.52 333.73 356.00 L 330.93 348.65 C 330.73 348.13 330.75 347.63 330.98 347.12 C 331.21 346.62 331.58 346.27 332.10 346.07 C 332.61 345.88 333.12 345.90 333.62 346.12 Z M 346.02 338.15 C 345.83 338.67 345.48 339.04 344.98 339.27 L 337.82 342.62 C 337.32 342.85 336.81 342.87 336.30 342.68 C 335.78 342.48 335.41 342.13 335.18 341.62 C 334.95 341.12 334.93 340.62 335.12 340.10 C 335.32 339.58 335.67 339.21 336.18 338.98 L 343.32 335.62 C 343.83 335.40 344.34 335.38 344.85 335.57 C 345.37 335.77 345.74 336.12 345.98 336.62 C 346.20 337.13 346.22 337.63 346.02 338.15 Z M 326.73 345.35 C 327.06 345.79 327.20 346.28 327.12 346.83 C 327.06 347.37 326.81 347.81 326.38 348.15 L 317.48 354.90 C 317.03 355.23 316.53 355.36 315.98 355.28 C 315.44 355.20 315.00 354.94 314.68 354.50 C 314.34 354.06 314.20 353.57 314.27 353.03 C 314.34 352.48 314.59 352.04 315.02 351.70 L 323.93 344.95 C 324.37 344.62 324.87 344.50 325.43 344.58 C 325.96 344.65 326.40 344.91 326.73 345.35 Z M 328.05 328.15 C 328.05 327.59 328.24 327.12 328.62 326.72 C 329.02 326.34 329.49 326.15 330.05 326.15 C 330.61 326.15 331.08 326.34 331.48 326.72 C 331.86 327.12 332.05 327.59 332.05 328.15 L 332.05 333.70 C 332.05 334.26 331.86 334.73 331.48 335.12 C 331.08 335.51 330.61 335.70 330.05 335.70 C 329.49 335.70 329.02 335.51 328.62 335.12 C 328.24 334.73 328.05 334.26 328.05 333.70 L 328.05 328.15 Z M 313.75 334.38 C 314.00 333.88 314.38 333.53 314.90 333.35 C 315.42 333.17 315.93 333.20 316.43 333.45 L 324.07 337.15 C 324.57 337.39 324.91 337.78 325.10 338.30 C 325.28 338.82 325.25 339.33 325.00 339.82 C 324.75 340.32 324.37 340.67 323.85 340.85 C 323.33 341.03 322.82 341.00 322.32 340.75 L 314.68 337.05 C 314.18 336.80 313.84 336.42 313.65 335.90 C 313.47 335.38 313.50 334.87 313.75 334.38 Z M 443.73 335.98 L 443.75 335.98 C 445.55 334.22 447.65 333.34 450.05 333.35 C 452.53 333.35 454.63 334.23 456.35 335.98 L 456.38 336.00 C 458.12 337.72 459.00 339.82 459.00 342.30 C 459.01 344.75 458.13 346.86 456.38 348.62 C 454.65 350.34 452.54 351.20 450.05 351.20 C 447.66 351.21 445.57 350.36 443.78 348.65 C 443.76 348.63 443.74 348.62 443.73 348.60 C 442.01 346.84 441.15 344.74 441.15 342.30 C 441.15 339.81 442.01 337.70 443.73 335.98 Z M 446.55 338.82 L 446.57 338.82 C 445.62 339.77 445.15 340.93 445.15 342.30 C 445.15 343.63 445.61 344.78 446.52 345.75 C 446.54 345.77 446.56 345.78 446.57 345.80 C 447.57 346.73 448.73 347.19 450.05 347.20 C 451.42 347.20 452.58 346.73 453.53 345.77 C 454.50 344.81 454.99 343.65 455.00 342.30 C 455.00 340.93 454.52 339.77 453.55 338.82 L 453.53 338.80 C 452.58 337.83 451.42 337.35 450.05 337.35 C 448.72 337.36 447.55 337.85 446.55 338.82 Z M 373.62 286.50 C 374.03 286.88 374.24 287.35 374.25 287.90 C 374.26 288.45 374.08 288.92 373.70 289.32 C 373.32 289.73 372.85 289.93 372.30 289.95 C 355.73 290.42 339.42 291.12 323.38 292.05 C 322.82 292.08 322.34 291.92 321.93 291.55 C 321.51 291.18 321.29 290.73 321.25 290.18 C 321.22 289.62 321.38 289.14 321.75 288.73 C 322.12 288.31 322.57 288.08 323.12 288.05 C 339.22 287.12 355.57 286.42 372.20 285.95 C 372.75 285.94 373.22 286.12 373.62 286.50 Z M 198.93 333.90 C 198.77 333.37 198.83 332.86 199.10 332.38 C 199.37 331.89 199.77 331.58 200.30 331.43 C 200.83 331.27 201.34 331.33 201.82 331.60 L 206.97 334.50 C 207.46 334.77 207.77 335.17 207.93 335.70 C 208.08 336.23 208.02 336.74 207.75 337.22 C 207.48 337.71 207.08 338.02 206.55 338.17 C 206.02 338.33 205.51 338.27 205.03 338.00 L 199.88 335.10 C 199.39 334.83 199.08 334.43 198.93 333.90 Z M 192.53 330.98 C 193.05 331.14 193.44 331.46 193.70 331.95 C 193.97 332.44 194.03 332.95 193.88 333.48 C 193.71 334.00 193.39 334.39 192.90 334.65 L 187.00 337.85 C 186.51 338.12 186.00 338.18 185.47 338.03 C 184.95 337.86 184.56 337.54 184.30 337.05 C 184.03 336.56 183.97 336.05 184.12 335.53 C 184.29 335.00 184.61 334.61 185.10 334.35 L 191.00 331.15 C 191.49 330.88 192.00 330.82 192.53 330.98 Z M 191.40 318.02 L 195.10 322.27 C 195.47 322.69 195.63 323.18 195.60 323.72 C 195.56 324.27 195.34 324.73 194.93 325.10 C 194.51 325.47 194.03 325.63 193.47 325.60 C 192.93 325.56 192.47 325.34 192.10 324.92 L 188.40 320.67 C 188.03 320.26 187.87 319.77 187.90 319.22 C 187.94 318.67 188.16 318.22 188.57 317.85 C 188.99 317.48 189.47 317.32 190.03 317.35 C 190.57 317.39 191.03 317.61 191.40 318.02 Z M 203.75 320.82 C 204.18 320.46 204.67 320.31 205.22 320.35 C 205.77 320.40 206.22 320.64 206.57 321.07 C 206.94 321.50 207.09 321.98 207.05 322.52 C 207.00 323.07 206.77 323.52 206.35 323.88 L 202.50 327.23 C 202.07 327.58 201.58 327.74 201.03 327.70 C 200.48 327.65 200.03 327.40 199.68 326.98 C 199.31 326.56 199.16 326.07 199.20 325.53 C 199.25 324.98 199.48 324.53 199.90 324.18 L 203.75 320.82 Z M 160.22 268.48 L 160.25 268.48 C 158.57 266.82 156.56 266.00 154.20 266.00 C 151.87 266.00 149.85 266.82 148.15 268.48 L 148.18 268.48 C 146.50 270.14 145.66 272.13 145.65 274.45 C 145.65 276.83 146.50 278.85 148.18 280.53 L 148.15 280.53 C 149.86 282.18 151.87 283.00 154.20 283.00 C 156.55 283.00 158.57 282.18 160.25 280.53 L 160.22 280.53 C 161.91 278.85 162.75 276.83 162.75 274.45 C 162.74 272.13 161.90 270.14 160.22 268.48 Z M 163.05 265.62 L 163.07 265.62 C 165.53 268.09 166.76 271.03 166.75 274.45 C 166.75 277.94 165.53 280.92 163.07 283.38 L 163.05 283.38 C 160.59 285.79 157.65 287.00 154.20 287.00 C 150.79 287.00 147.84 285.79 145.35 283.38 L 145.32 283.38 C 142.87 280.92 141.65 277.94 141.65 274.45 C 141.64 271.03 142.87 268.09 145.32 265.62 L 145.35 265.62 C 147.84 263.21 150.79 262.00 154.20 262.00 C 157.65 262.00 160.59 263.21 163.05 265.62 Z M 182.78 157.43 C 183.17 157.04 183.64 156.85 184.20 156.85 C 184.76 156.85 185.23 157.04 185.62 157.43 C 186.01 157.82 186.20 158.29 186.20 158.85 L 186.20 166.75 L 194.10 166.75 C 194.66 166.75 195.13 166.94 195.53 167.32 C 195.91 167.72 196.10 168.19 196.10 168.75 C 196.10 169.31 195.91 169.78 195.53 170.18 C 195.13 170.56 194.66 170.75 194.10 170.75 L 186.20 170.75 L 186.20 178.65 C 186.20 179.21 186.01 179.68 185.62 180.07 C 185.23 180.46 184.76 180.65 184.20 180.65 C 183.64 180.65 183.17 180.46 182.78 180.07 C 182.39 179.68 182.20 179.21 182.20 178.65 L 182.20 170.75 L 174.35 170.75 C 173.79 170.75 173.32 170.56 172.93 170.18 C 172.54 169.78 172.35 169.31 172.35 168.75 C 172.35 168.19 172.54 167.72 172.93 167.32 C 173.32 166.94 173.79 166.75 174.35 166.75 L 182.20 166.75 L 182.20 158.85 C 182.20 158.29 182.39 157.82 182.78 157.43 Z M 25.57 345.52 C 25.06 345.71 24.55 345.69 24.05 345.45 C 23.55 345.21 23.21 344.84 23.02 344.32 C 22.84 343.81 22.86 343.30 23.10 342.80 C 23.33 342.30 23.71 341.96 24.23 341.78 C 26.78 340.87 29.37 339.99 32.00 339.15 C 32.52 338.98 33.02 339.02 33.50 339.28 C 33.99 339.52 34.33 339.91 34.50 340.43 C 34.67 340.95 34.63 341.46 34.38 341.95 C 34.12 342.44 33.73 342.78 33.20 342.95 C 30.62 343.77 28.08 344.63 25.57 345.52 Z M 79.60 328.48 C 79.12 328.20 78.81 327.80 78.67 327.28 C 78.53 326.74 78.60 326.23 78.88 325.75 C 79.15 325.27 79.55 324.97 80.08 324.83 C 128.97 311.77 181.80 301.94 238.57 295.33 C 239.12 295.26 239.62 295.39 240.05 295.73 C 240.48 296.07 240.72 296.52 240.78 297.08 C 240.84 297.62 240.71 298.12 240.38 298.55 C 240.03 298.98 239.58 299.22 239.03 299.28 C 182.47 305.87 129.83 315.67 81.12 328.68 C 80.59 328.82 80.08 328.75 79.60 328.48 Z M 64.47 329.80 C 64.96 330.07 65.27 330.47 65.42 331.00 C 65.58 331.53 65.52 332.04 65.25 332.52 C 64.98 333.01 64.58 333.32 64.05 333.47 C 57.14 335.43 50.28 337.51 43.48 339.70 C 42.95 339.87 42.44 339.83 41.95 339.57 C 41.45 339.33 41.12 338.94 40.95 338.43 C 40.78 337.90 40.82 337.39 41.08 336.90 C 41.32 336.41 41.71 336.07 42.23 335.90 C 49.08 333.69 55.99 331.60 62.95 329.63 C 63.48 329.47 63.99 329.53 64.47 329.80 Z M 74.45 289.68 C 74.84 290.06 75.04 290.53 75.05 291.07 C 75.06 291.62 74.86 292.10 74.47 292.50 L 70.72 296.25 C 70.34 296.64 69.87 296.84 69.33 296.85 C 68.77 296.86 68.30 296.66 67.90 296.28 C 67.50 295.89 67.31 295.42 67.30 294.88 C 67.30 294.32 67.49 293.85 67.88 293.45 L 71.62 289.70 C 72.01 289.31 72.48 289.11 73.03 289.10 C 73.58 289.10 74.05 289.29 74.45 289.68 Z M 84.65 277.45 C 85.20 277.44 85.68 277.62 86.08 278.00 C 86.48 278.38 86.69 278.85 86.70 279.40 C 86.71 279.96 86.53 280.44 86.15 280.85 L 83.30 283.70 C 82.92 284.09 82.45 284.29 81.90 284.30 C 81.35 284.31 80.87 284.13 80.47 283.75 C 80.07 283.37 79.86 282.90 79.85 282.35 C 79.84 281.79 80.02 281.31 80.40 280.90 L 83.25 278.05 C 83.63 277.66 84.10 277.46 84.65 277.45 Z M 67.35 279.50 C 66.97 279.10 66.79 278.63 66.80 278.07 C 66.81 277.52 67.01 277.06 67.40 276.68 C 67.80 276.29 68.27 276.10 68.83 276.10 C 69.38 276.11 69.86 276.31 70.25 276.70 L 73.15 279.65 C 73.53 280.05 73.71 280.52 73.70 281.08 C 73.69 281.62 73.49 282.09 73.10 282.48 C 72.70 282.86 72.23 283.06 71.67 283.05 C 71.12 283.04 70.64 282.84 70.25 282.45 L 67.35 279.50 Z M 88.25 295.55 C 88.25 296.11 88.06 296.58 87.67 296.98 C 87.28 297.36 86.81 297.55 86.25 297.55 C 85.69 297.55 85.22 297.36 84.83 296.98 L 81.12 293.33 C 80.74 292.93 80.55 292.46 80.55 291.90 C 80.55 291.34 80.74 290.87 81.12 290.48 C 81.52 290.09 81.99 289.90 82.55 289.90 C 83.11 289.90 83.58 290.09 83.97 290.48 L 87.67 294.12 C 88.06 294.52 88.25 294.99 88.25 295.55 Z M 116.53 207.03 C 116.92 206.64 117.39 206.45 117.95 206.45 C 118.51 206.45 118.98 206.64 119.38 207.03 C 119.76 207.42 119.95 207.89 119.95 208.45 L 119.95 218.85 L 130.25 218.85 C 130.81 218.84 131.28 219.04 131.68 219.42 C 132.06 219.82 132.25 220.29 132.25 220.85 C 132.25 221.41 132.06 221.88 131.68 222.28 C 131.28 222.66 130.81 222.85 130.25 222.85 L 119.95 222.85 L 119.95 233.20 C 119.95 233.76 119.76 234.23 119.38 234.62 C 118.98 235.01 118.51 235.20 117.95 235.20 C 117.39 235.20 116.92 235.01 116.53 234.62 C 116.14 234.23 115.95 233.76 115.95 233.20 L 115.95 222.85 L 105.60 222.85 C 105.04 222.85 104.57 222.66 104.17 222.28 C 103.79 221.88 103.60 221.41 103.60 220.85 C 103.60 220.29 103.79 219.82 104.17 219.43 C 104.57 219.04 105.04 218.85 105.60 218.85 L 115.95 218.85 L 115.95 208.45 C 115.95 207.90 116.14 207.42 116.53 207.03 Z M 218.40 62.60 C 217.67 62.20 217.18 61.60 216.95 60.80 L 216.50 59.00 C 216.30 58.20 216.40 57.45 216.80 56.75 C 217.20 56.02 217.80 55.53 218.60 55.30 C 219.40 55.10 220.17 55.20 220.90 55.60 C 221.60 56.00 222.07 56.60 222.30 57.40 L 222.75 59.20 C 222.95 60.00 222.85 60.77 222.45 61.50 C 222.05 62.20 221.45 62.67 220.65 62.90 C 219.85 63.10 219.10 63.00 218.40 62.60 Z M 176.10 31.95 L 176.15 31.95 C 184.02 24.02 194.50 18.30 207.60 14.80 C 220.73 11.27 232.62 10.98 243.25 13.95 C 254.85 17.05 261.70 22.87 263.80 31.40 C 266.17 39.77 263.15 48.20 254.75 56.70 C 254.72 56.70 254.70 56.72 254.70 56.75 C 254.17 57.25 253.62 57.77 253.05 58.30 L 256.55 71.15 C 256.75 71.88 256.68 72.60 256.35 73.30 C 255.98 74.00 255.45 74.48 254.75 74.75 C 254.05 75.02 253.33 75.03 252.60 74.80 L 236.90 69.00 C 230.40 71.53 225.92 73.13 223.45 73.80 C 210.35 77.30 198.40 77.58 187.60 74.65 L 187.55 74.65 C 176.12 71.48 169.35 65.70 167.25 57.30 C 164.82 48.87 167.77 40.42 176.10 31.95 Z M 180.40 36.15 L 180.40 36.20 C 173.93 42.77 171.48 49.28 173.05 55.75 C 174.88 62.05 180.25 66.42 189.15 68.85 C 199.02 71.45 209.93 71.17 221.90 68.00 L 221.85 68.00 C 224.32 67.30 228.95 65.62 235.75 62.95 C 236.48 62.68 237.20 62.68 237.90 62.95 L 249.20 67.10 L 246.75 58.10 C 246.58 57.53 246.60 56.98 246.80 56.45 C 246.97 55.88 247.27 55.42 247.70 55.05 C 248.67 54.18 249.60 53.33 250.50 52.50 C 250.50 52.47 250.52 52.45 250.55 52.45 C 257.05 45.85 259.53 39.35 258.00 32.95 C 256.17 26.58 250.73 22.18 241.70 19.75 L 241.65 19.75 C 231.95 17.12 221.12 17.40 209.15 20.60 C 197.22 23.77 187.63 28.95 180.40 36.15 Z M 203.70 31.70 C 203.73 31.67 203.77 31.63 203.80 31.60 C 205.43 28.80 207.78 27.00 210.85 26.20 C 213.88 25.40 216.75 25.78 219.45 27.35 C 219.48 27.38 219.52 27.42 219.55 27.45 C 222.35 28.98 224.15 31.28 224.95 34.35 L 224.95 34.30 C 225.78 37.40 225.38 40.33 223.75 43.10 C 223.72 43.13 223.68 43.18 223.65 43.25 C 222.68 44.92 221.42 46.23 219.85 47.20 L 219.90 47.15 C 219.80 47.22 219.70 47.28 219.60 47.35 L 220.40 50.50 C 220.60 51.30 220.50 52.05 220.10 52.75 C 219.67 53.48 219.05 53.95 218.25 54.15 C 217.45 54.35 216.70 54.25 216.00 53.85 C 215.27 53.42 214.80 52.82 214.60 52.05 L 213.10 46.35 C 212.97 45.82 212.97 45.28 213.10 44.75 C 213.27 44.22 213.55 43.77 213.95 43.40 C 214.32 43.00 214.77 42.75 215.30 42.65 C 215.80 42.52 216.28 42.32 216.75 42.05 C 217.45 41.58 218.03 40.97 218.50 40.20 C 218.50 40.17 218.52 40.13 218.55 40.10 C 219.35 38.77 219.55 37.37 219.15 35.90 C 218.75 34.47 217.90 33.38 216.60 32.65 C 216.53 32.62 216.48 32.60 216.45 32.60 C 215.18 31.80 213.83 31.60 212.40 32.00 C 210.93 32.40 209.80 33.23 209.00 34.50 C 208.33 35.77 208.17 37.13 208.50 38.60 C 208.67 39.10 208.80 39.57 208.90 40.00 C 209.07 40.80 208.92 41.55 208.45 42.25 C 207.98 42.95 207.35 43.38 206.55 43.55 C 205.75 43.72 205.00 43.57 204.30 43.10 C 203.60 42.63 203.17 42.00 203.00 41.20 C 202.97 41.00 202.92 40.80 202.85 40.60 C 202.82 40.50 202.78 40.40 202.75 40.30 C 201.95 37.23 202.27 34.37 203.70 31.70 Z"
      fill="#aaaaaa" fill-rule="nonzero" group-id="1" node-id="24" stroke="none" target-height="346.38998"
      target-width="804.12994" target-x="22.84" target-y="10.98"></path>
  </g>
  <path
    d="M 468.20 269.70 L 468.20 269.75 C 467.57 277.32 464.78 284.20 459.85 290.40 C 459.35 291.03 458.68 291.40 457.85 291.50 C 457.02 291.57 456.28 291.35 455.65 290.85 C 454.98 290.35 454.62 289.68 454.55 288.85 C 454.45 288.02 454.65 287.28 455.15 286.65 C 459.28 281.42 461.63 275.62 462.20 269.25 C 462.27 268.25 462.30 267.23 462.30 266.20 C 462.30 265.37 462.60 264.67 463.20 264.10 C 463.77 263.50 464.47 263.20 465.30 263.20 C 466.13 263.20 466.85 263.50 467.45 264.10 C 468.02 264.67 468.30 265.37 468.30 266.20 C 468.30 267.37 468.27 268.53 468.20 269.70 Z M 605.88 271.55 C 606.70 271.60 607.39 271.93 607.95 272.55 C 608.50 273.17 608.75 273.90 608.70 274.73 C 608.63 275.92 608.50 277.11 608.33 278.30 C 607.17 285.79 603.94 292.46 598.62 298.32 C 598.07 298.93 597.38 299.26 596.55 299.30 C 595.73 299.34 595.01 299.08 594.40 298.53 C 593.78 297.97 593.45 297.28 593.40 296.45 C 593.36 295.62 593.62 294.90 594.17 294.28 C 598.66 289.34 601.39 283.71 602.38 277.40 C 602.53 276.39 602.64 275.38 602.70 274.38 C 602.75 273.55 603.08 272.86 603.70 272.30 C 604.32 271.75 605.05 271.50 605.88 271.55 Z M 555.55 144.72 L 555.55 144.75 L 546.75 270.45 L 546.75 270.50 C 546.68 271.27 546.76 272.00 546.98 272.70 L 546.98 272.72 C 547.27 273.62 547.77 274.46 548.50 275.25 C 550.41 276.93 552.73 277.86 555.45 278.05 C 558.14 278.23 560.52 277.65 562.60 276.30 C 563.40 275.62 564.04 274.85 564.50 274.00 C 564.80 273.29 564.98 272.52 565.05 271.70 L 573.85 146.05 C 573.95 144.18 573.31 142.54 571.95 141.12 L 571.90 141.10 C 570.11 139.18 567.89 138.13 565.25 137.95 C 562.58 137.76 560.20 138.50 558.10 140.15 L 558.08 140.17 C 556.52 141.37 555.68 142.89 555.55 144.72 Z M 533.42 116.22 L 533.40 116.22 C 523.85 123.11 518.70 131.74 517.95 142.10 L 509.15 267.77 C 509.09 268.80 509.05 269.82 509.05 270.85 L 509.05 270.90 C 509.16 277.29 511.10 283.22 514.87 288.70 C 516.54 291.12 518.53 293.48 520.85 295.77 L 520.80 295.70 C 521.75 296.59 522.74 297.41 523.77 298.18 C 523.80 298.19 523.82 298.21 523.85 298.23 C 532.03 304.58 541.85 308.17 553.30 309.00 L 553.32 309.00 C 564.77 309.79 574.98 307.60 583.95 302.45 C 584.67 302.04 585.43 301.94 586.22 302.15 C 587.02 302.37 587.63 302.83 588.05 303.55 C 588.46 304.27 588.56 305.03 588.35 305.82 C 588.13 306.62 587.67 307.23 586.95 307.65 C 576.99 313.42 565.64 315.88 552.90 315.00 L 552.87 315.00 C 540.14 314.09 529.23 310.08 520.15 302.97 C 518.95 302.08 517.80 301.13 516.70 300.10 C 516.68 300.07 516.67 300.05 516.65 300.02 C 514.04 297.45 511.79 294.81 509.92 292.10 C 505.44 285.59 503.15 278.54 503.05 270.95 L 503.05 270.90 C 503.05 269.74 503.08 268.58 503.15 267.42 L 503.15 267.40 L 511.95 141.70 C 512.74 129.53 518.72 119.42 529.90 111.38 L 529.87 111.38 C 540.81 103.39 553.47 99.90 567.85 100.90 C 582.23 101.89 594.25 107.09 603.92 116.53 L 603.95 116.55 C 613.85 126.07 618.37 136.90 617.50 149.05 L 609.45 263.85 C 609.38 264.68 609.03 265.38 608.40 265.93 C 607.77 266.47 607.05 266.71 606.22 266.65 C 605.40 266.58 604.72 266.24 604.17 265.60 C 603.63 264.98 603.39 264.26 603.45 263.45 L 611.50 148.65 C 612.16 138.28 608.26 129.02 599.77 120.88 L 599.75 120.85 C 591.09 112.43 580.32 107.78 567.45 106.90 C 554.56 105.97 543.22 109.08 533.42 116.22 Z M 554.40 135.45 L 554.42 135.43 C 557.72 132.83 561.46 131.67 565.65 131.95 C 569.88 132.24 573.42 133.92 576.30 137.00 L 576.25 136.97 C 578.88 139.68 580.08 142.83 579.85 146.43 L 579.85 146.45 L 571.05 272.15 L 571.05 272.20 C 570.91 273.71 570.57 275.11 570.00 276.40 C 569.98 276.44 569.95 276.49 569.92 276.55 C 569.09 278.25 567.86 279.76 566.25 281.07 C 566.18 281.13 566.10 281.19 566.02 281.25 C 562.85 283.40 559.19 284.33 555.05 284.05 C 550.90 283.77 547.39 282.33 544.50 279.75 C 544.45 279.70 544.40 279.65 544.35 279.60 C 542.82 278.03 541.78 276.32 541.22 274.47 L 541.22 274.50 C 540.78 273.08 540.62 271.60 540.75 270.05 L 549.55 144.35 C 549.76 140.74 551.38 137.78 554.40 135.45 Z M 330.05 271.85 C 330.56 272.50 330.77 273.23 330.68 274.05 C 330.52 275.43 330.39 276.83 330.30 278.25 C 330.28 278.43 330.25 278.60 330.20 278.77 C 328.68 284.84 326.29 290.23 323.02 294.95 C 322.55 295.63 321.91 296.05 321.10 296.20 C 320.29 296.35 319.54 296.19 318.85 295.72 C 318.17 295.25 317.75 294.61 317.60 293.80 C 317.45 292.99 317.61 292.24 318.07 291.55 C 320.88 287.49 322.97 282.85 324.32 277.65 C 324.42 276.20 324.56 274.77 324.73 273.35 C 324.82 272.53 325.20 271.86 325.85 271.35 C 326.50 270.83 327.23 270.63 328.05 270.72 C 328.87 270.82 329.54 271.20 330.05 271.85 Z M 311.38 102.00 C 312.00 102.54 312.34 103.23 312.40 104.05 L 314.65 136.80 C 314.70 137.62 314.45 138.35 313.90 138.97 C 313.36 139.60 312.67 139.94 311.85 140.00 L 261.23 143.55 L 263.30 172.65 L 301.80 169.95 C 308.18 169.49 313.44 170.94 317.57 174.30 C 322.35 177.72 324.91 182.21 325.25 187.75 L 330.25 259.25 C 330.31 260.06 330.07 260.78 329.52 261.40 C 328.98 262.03 328.30 262.38 327.48 262.45 C 326.65 262.51 325.93 262.27 325.30 261.72 C 324.67 261.17 324.32 260.48 324.25 259.65 L 319.25 188.15 C 318.99 184.42 317.23 181.40 313.98 179.10 C 313.93 179.06 313.88 179.03 313.82 179.00 C 310.77 176.63 306.90 175.61 302.23 175.95 L 302.20 175.95 L 260.70 178.85 C 259.89 178.91 259.17 178.67 258.55 178.12 C 257.92 177.58 257.57 176.90 257.50 176.07 L 255.00 140.97 C 254.95 140.15 255.20 139.41 255.75 138.78 C 256.30 138.15 256.98 137.80 257.80 137.75 L 308.45 134.20 L 306.60 107.45 L 237.45 112.30 C 232.79 112.61 229.08 114.19 226.32 117.03 C 226.28 117.06 226.24 117.09 226.20 117.12 C 223.31 119.85 222.00 123.09 222.25 126.83 L 222.25 126.85 L 226.95 194.65 C 227.24 198.03 229.00 200.85 232.22 203.10 C 232.26 203.12 232.31 203.15 232.35 203.17 C 235.45 205.53 239.33 206.56 244.00 206.25 L 285.50 203.35 C 286.31 203.29 287.03 203.53 287.65 204.07 C 288.28 204.62 288.63 205.32 288.70 206.15 L 293.20 269.85 C 293.23 270.37 293.13 270.87 292.90 271.35 C 292.75 271.75 292.70 272.24 292.75 272.80 C 292.77 273.04 292.76 273.28 292.73 273.52 C 292.47 275.14 291.99 276.58 291.30 277.85 C 291.27 277.92 291.23 277.98 291.20 278.05 C 290.73 278.80 290.16 279.49 289.50 280.10 C 288.01 281.83 284.94 282.86 280.27 283.20 C 278.51 283.33 276.99 283.43 275.70 283.50 C 275.50 283.51 275.30 283.50 275.10 283.48 C 272.80 283.12 271.02 282.45 269.75 281.48 C 269.66 281.40 269.57 281.33 269.48 281.25 C 268.85 280.69 268.30 280.00 267.82 279.18 L 267.85 279.20 C 267.37 278.36 266.91 277.30 266.48 276.02 C 266.38 275.75 266.32 275.46 266.30 275.17 C 266.28 274.89 266.19 274.61 266.02 274.35 C 265.73 273.90 265.57 273.40 265.55 272.87 C 265.52 272.14 265.48 271.61 265.45 271.27 C 265.39 270.58 265.54 269.96 265.90 269.40 L 263.30 232.05 L 231.00 234.35 L 233.55 271.05 C 233.62 271.81 233.68 272.60 233.75 273.40 C 233.75 273.44 233.75 273.49 233.75 273.52 C 233.78 274.26 233.85 275.18 233.95 276.30 L 233.95 276.32 C 234.04 277.46 234.21 278.59 234.47 279.70 C 234.48 279.75 234.49 279.80 234.50 279.85 C 234.72 281.07 235.09 282.28 235.60 283.47 C 235.65 283.58 235.69 283.68 235.72 283.77 C 237.22 288.75 239.68 293.08 243.10 296.75 C 243.12 296.77 243.13 296.80 243.15 296.82 C 244.23 298.05 245.45 299.18 246.80 300.22 L 246.80 300.25 C 249.00 301.98 251.38 303.54 253.93 304.92 L 253.90 304.90 C 255.83 305.93 257.87 306.82 260.02 307.57 L 260.05 307.57 C 266.24 309.73 273.35 310.52 281.40 309.95 C 281.47 309.95 281.53 309.95 281.60 309.95 L 282.30 309.90 L 282.10 309.90 C 289.70 309.37 296.45 307.61 302.35 304.62 C 302.38 304.61 302.40 304.59 302.43 304.57 C 304.68 303.52 306.78 302.33 308.73 301.02 C 309.41 300.56 310.16 300.40 310.98 300.55 C 311.78 300.71 312.41 301.13 312.88 301.82 C 313.35 302.51 313.50 303.26 313.35 304.07 C 313.19 304.88 312.76 305.51 312.07 305.97 C 309.88 307.46 307.52 308.81 304.98 310.02 L 305.05 309.97 C 298.48 313.32 290.97 315.30 282.50 315.90 C 282.43 315.90 282.37 315.90 282.30 315.90 L 281.60 315.95 L 281.80 315.95 C 272.85 316.58 264.93 315.67 258.05 313.22 L 258.07 313.22 C 255.62 312.38 253.30 311.37 251.10 310.20 L 251.07 310.17 C 248.22 308.63 245.56 306.88 243.10 304.95 L 243.10 304.97 C 241.45 303.68 239.97 302.28 238.65 300.77 L 238.70 300.85 C 234.65 296.52 231.74 291.41 229.97 285.52 C 229.37 284.06 228.92 282.59 228.62 281.10 C 228.29 279.68 228.06 278.23 227.95 276.77 C 227.85 275.63 227.79 274.67 227.75 273.90 C 227.68 273.10 227.62 272.31 227.55 271.55 L 227.55 271.50 L 224.80 231.75 C 224.74 230.94 224.98 230.22 225.53 229.60 C 226.08 228.97 226.77 228.62 227.60 228.55 L 265.90 225.85 C 266.72 225.79 267.45 226.04 268.07 226.60 C 268.70 227.15 269.05 227.83 269.10 228.65 L 271.90 269.00 C 271.99 270.10 271.87 271.03 271.52 271.80 C 271.51 271.82 271.50 271.85 271.50 271.87 C 271.50 271.90 271.51 271.93 271.52 271.95 C 271.94 272.77 272.19 273.61 272.27 274.47 C 272.52 275.15 272.78 275.73 273.05 276.20 L 273.07 276.22 C 273.17 276.41 273.28 276.58 273.40 276.72 C 274.00 277.06 274.77 277.31 275.73 277.47 C 276.90 277.41 278.27 277.32 279.82 277.20 L 279.85 277.20 C 282.56 277.01 284.36 276.57 285.25 275.87 C 285.30 275.81 285.35 275.76 285.40 275.70 C 285.67 275.44 285.90 275.16 286.10 274.85 C 286.38 274.25 286.59 273.60 286.73 272.87 C 286.66 271.64 286.81 270.53 287.15 269.55 L 282.93 209.55 L 244.40 212.25 C 238.07 212.67 232.82 211.23 228.65 207.92 L 228.78 208.00 C 223.87 204.58 221.26 200.26 220.95 195.05 L 216.25 127.25 C 215.84 121.66 217.79 116.84 222.10 112.77 L 221.97 112.87 C 225.68 108.91 230.71 106.72 237.05 106.30 L 309.20 101.25 C 310.03 101.20 310.75 101.45 311.38 102.00 Z M 415.40 101.60 C 402.47 101.60 391.37 105.48 382.10 113.25 C 373.07 120.82 368.53 129.80 368.50 140.20 L 368.50 266.20 C 368.50 267.20 368.55 268.22 368.65 269.25 C 369.18 275.62 371.52 281.42 375.65 286.65 C 377.48 288.92 379.62 291.08 382.05 293.15 C 383.08 293.98 384.15 294.77 385.25 295.50 L 385.30 295.55 C 393.87 301.35 403.90 304.23 415.40 304.20 C 426.90 304.20 436.95 301.32 445.55 295.55 C 446.22 295.05 446.97 294.88 447.80 295.05 C 448.60 295.22 449.23 295.65 449.70 296.35 C 450.17 297.02 450.32 297.77 450.15 298.60 C 449.98 299.40 449.57 300.03 448.90 300.50 C 439.33 306.97 428.17 310.20 415.40 310.20 C 402.63 310.17 391.48 306.93 381.95 300.50 C 380.72 299.70 379.50 298.82 378.30 297.85 C 378.27 297.82 378.23 297.80 378.20 297.80 C 375.40 295.43 372.98 292.97 370.95 290.40 C 366.02 284.20 363.25 277.32 362.65 269.75 C 362.55 268.58 362.50 267.40 362.50 266.20 L 362.50 140.20 C 362.47 128.00 367.72 117.48 378.25 108.65 C 388.62 99.95 401.00 95.60 415.40 95.60 C 429.80 95.60 442.17 99.95 452.50 108.65 C 463.07 117.48 468.33 128.00 468.30 140.20 L 468.30 255.25 C 468.30 256.08 468.02 256.80 467.45 257.40 C 466.85 257.97 466.13 258.25 465.30 258.25 C 464.47 258.25 463.77 257.97 463.20 257.40 C 462.60 256.80 462.30 256.08 462.30 255.25 L 462.30 140.20 C 462.27 129.80 457.72 120.82 448.65 113.25 C 439.42 105.48 428.33 101.60 415.40 101.60 Z M 399.65 144.60 C 399.65 140.43 401.20 136.87 404.30 133.90 L 404.30 133.85 C 407.37 130.98 411.05 129.55 415.35 129.55 L 415.40 129.55 C 419.70 129.55 423.37 131.00 426.40 133.90 L 426.45 133.90 C 429.55 136.87 431.10 140.43 431.10 144.60 L 431.10 261.25 C 431.10 265.45 429.55 269.02 426.45 271.95 L 426.40 271.95 C 423.37 274.85 419.70 276.30 415.40 276.30 L 415.35 276.30 C 411.05 276.30 407.37 274.85 404.30 271.95 C 401.20 269.02 399.65 265.45 399.65 261.25 L 399.65 144.60 Z M 408.45 138.25 L 408.40 138.25 C 406.57 140.02 405.65 142.13 405.65 144.60 L 405.65 261.25 C 405.65 263.72 406.57 265.83 408.40 267.60 L 408.45 267.60 C 410.35 269.40 412.65 270.30 415.35 270.30 L 415.40 270.30 C 418.10 270.30 420.40 269.40 422.30 267.60 L 422.30 267.55 C 424.17 265.82 425.10 263.72 425.10 261.25 L 425.10 144.60 C 425.10 142.13 424.17 140.02 422.30 138.25 C 420.40 136.45 418.10 135.55 415.40 135.55 L 415.35 135.55 C 412.65 135.55 410.35 136.45 408.45 138.25 Z"
    fill="url(#SVGID_1_)" fill-rule="evenodd" group-id="2" node-id="29" stroke="none" target-height="220.97998"
    target-width="402.53" target-x="215.84" target-y="95.6"></path>
</svg>
